<?xml version="1.0" standalone="no"?>
<!DOCTYPE svg PUBLIC "-//W3C//DTD SVG 1.1//EN" "http://www.w3.org/Graphics/SVG/1.1/DTD/svg11.dtd" >
<svg xmlns="http://www.w3.org/2000/svg" xmlns:xlink="http://www.w3.org/1999/xlink" version="1.1">
<metadata></metadata>
<defs>
<font id="libre_caslon_textbold" horiz-adv-x="1599" >
<font-face units-per-em="2048" ascent="1638" descent="-410" />
<missing-glyph horiz-adv-x="518" />
<glyph unicode="&#xfb01;" horiz-adv-x="1529" d="M29 989l28 96h181q0 70 2 119t6 85t10 60.5t16 47.5q31 70 86.5 126t133 95t175 59.5t210.5 20.5q106 0 193 -18.5t148.5 -51.5t95.5 -79t34 -103q0 -68 -44 -110t-116 -42q-131 0 -187 152q-27 72 -70.5 107.5t-115.5 35.5q-86 0 -146.5 -33.5t-88.5 -101.5 q-8 -18 -12.5 -39.5t-7.5 -55.5t-4 -83t-1 -121v-70h287l448 41h43v-1013l164 -41v-72h-655v72l174 41v790l-174 86h-287v-876l211 -41v-72h-703v72l175 41v876h-209z" />
<glyph unicode="&#xfb02;" horiz-adv-x="1536" d="M29 989l28 96h181q0 70 2 119t6 85t10 60.5t16 47.5q61 143 222 222t391 79q100 0 182 -15.5t141.5 -43t92 -65.5t32.5 -85v-1376l164 -41v-72h-655v72l174 41v876h-461v-876l211 -41v-72h-703v72l175 41v876h-209zM555 1085h461v299q0 104 -52.5 154.5t-148.5 50.5 q-86 0 -147.5 -35.5t-87.5 -99.5q-8 -18 -12.5 -39.5t-7.5 -55.5t-4 -83t-1 -121v-70z" />
<glyph unicode="&#xfb03;" horiz-adv-x="2310" d="M29 989l28 96h181q2 84 10 130.5t24 80.5q29 68 83.5 124.5t128 95t162.5 60t190 21.5q203 0 321 -57q86 76 213 117t285 41q106 0 193 -18.5t149.5 -51.5t96.5 -79t34 -101q0 -68 -43 -111t-113 -43q-135 0 -190 152q-18 45 -32.5 73.5t-33 44t-43 20.5t-61.5 5 q-98 0 -163 -34.5t-89 -100.5q-8 -18 -12.5 -40.5t-7.5 -56.5t-4 -83t-1 -119v-70h287l444 41h48v-1013l163 -41v-72h-655v72l174 41v790l-174 86h-287v-876l211 -41v-72h-702v72l174 41v876h-463v-876l211 -41v-72h-703v72l175 41v876h-209zM555 1085h463q0 47 1 85t3 69 q-16 123 -67.5 186.5t-157.5 63.5q-70 0 -130.5 -32t-86.5 -103q-16 -43 -20.5 -109.5t-4.5 -159.5z" />
<glyph unicode="&#xfb04;" horiz-adv-x="2314" d="M29 989l28 96h181q2 84 10 130.5t24 80.5q29 68 82.5 124.5t127 95t163.5 60t191 21.5q98 0 180 -14t139 -41q86 76 215 116t293 40q100 0 182 -15.5t141.5 -43t92 -65.5t32.5 -85v-1376l164 -41v-72h-655v72l174 41v876h-461v-876l211 -41v-72h-702v72l174 41v876h-461 v-876l211 -41v-72h-703v72l175 41v876h-209zM555 1085h461q0 49 1 89t3 69q-16 111 -66.5 178.5t-156.5 67.5q-70 0 -129.5 -32t-87.5 -103q-16 -43 -20.5 -109.5t-4.5 -159.5zM1333 1085h461v299q0 104 -52 154.5t-149 50.5q-86 0 -147.5 -35.5t-87.5 -99.5 q-8 -18 -12.5 -39.5t-7.5 -55.5t-4 -83t-1 -121v-70z" />
<glyph horiz-adv-x="0" />
<glyph unicode="&#xd;" horiz-adv-x="624" />
<glyph unicode=" "  horiz-adv-x="518" />
<glyph unicode="&#x09;" horiz-adv-x="518" />
<glyph unicode="&#xa0;" horiz-adv-x="518" />
<glyph unicode="!" horiz-adv-x="669" d="M150 1415q0 78 49 130t137 52q98 0 141 -52t43 -124q0 -39 -3 -80t-10 -91t-18.5 -111.5t-27.5 -143.5q-31 -147 -47.5 -276t-16.5 -248h-125q0 121 -17 251t-48 279q-16 80 -27.5 141.5t-17.5 111t-9 88t-3 73.5zM156 147q0 68 46 119t130 51q86 0 134 -51t48 -119 q0 -63 -46 -115t-136 -52q-86 0 -131 52t-45 115z" />
<glyph unicode="&#x22;" horiz-adv-x="765" d="M96 1556q0 66 35 105t94 39q66 0 97.5 -38t31.5 -97q0 -37 -11 -91.5t-24.5 -122t-26.5 -148.5t-16 -169h-102q-2 88 -14.5 168t-26.5 146.5t-25.5 120t-11.5 87.5zM412 1556q0 66 34.5 105t94.5 39q66 0 97.5 -38t31.5 -97q0 -37 -11.5 -91.5t-24.5 -122t-26.5 -148.5 t-15.5 -169h-103q-2 88 -14 168t-26.5 146.5t-25.5 120t-11 87.5z" />
<glyph unicode="#" horiz-adv-x="1366" d="M74 524l28 138h279l45 286h-274l24 137h273l53 340h139l-53 -340h284l54 340h137l-53 -340h280l-24 -137h-279l-45 -286h275l-29 -138h-266l-54 -336h-137l53 336h-284l-54 -336h-139l53 336h-286zM520 662h285l45 286h-285z" />
<glyph unicode="$" horiz-adv-x="1157" d="M86 1163q0 84 33 157t91 128t140 93t180 50v228h123v-224q82 -4 155 -28.5t125 -64.5t83 -93t31 -115q0 -55 -33 -87.5t-88 -32.5q-111 0 -146 139q-31 127 -127 155v-507q80 -41 157 -83t136.5 -99.5t96 -137.5t36.5 -195q0 -86 -31.5 -161.5t-88 -135t-134 -99.5 t-172.5 -56v-203h-123v191q-92 0 -173 23.5t-141 64.5t-94 96t-34 117q0 59 36 95t95 36q113 0 146 -150q33 -147 165 -162v547q-86 43 -165.5 87t-141 101.5t-99.5 136.5t-38 189zM383 1296q0 -92 41 -153.5t106 -108.5v434q-68 -16 -107.5 -61t-39.5 -111zM653 111 q72 18 114 69t42 125q0 92 -44 155.5t-112 112.5v-462z" />
<glyph unicode="%" horiz-adv-x="2076" d="M72 1112q0 102 32.5 192.5t89 157t132 104.5t163.5 38t164 -39t133.5 -105.5t90 -156t32.5 -191.5t-32.5 -190t-89 -154t-133 -102.5t-165.5 -36.5q-88 0 -164.5 36.5t-133 102.5t-88 154t-31.5 190zM399 1112q0 -123 5.5 -200.5t15.5 -122t27.5 -59.5t41.5 -15 q25 0 43.5 15t28.5 59.5t15.5 122t5.5 200.5t-5.5 203t-15.5 125t-28.5 62.5t-43.5 17.5t-42 -17.5t-27 -62.5t-15.5 -125t-5.5 -203zM455 0l950 1577h215l-952 -1577h-213zM1167 463q0 102 33 192t89.5 157t132 104.5t163.5 37.5t164 -38.5t133 -105.5t90 -156t33 -191 t-33 -190.5t-89 -154t-133 -102t-165 -36.5t-165 36.5t-133 102t-88 153.5t-32 191zM1495 463q0 -123 5 -201t15.5 -122t28 -59t41.5 -15q25 0 43.5 15t28.5 59t15 122t5 201t-5 202.5t-15 125t-28.5 62.5t-43.5 17t-42 -17t-27.5 -62.5t-15.5 -125t-5 -202.5z" />
<glyph unicode="&#x26;" horiz-adv-x="1689" d="M117 371q0 74 21.5 132t69.5 114.5t124.5 118t189.5 141.5q-55 68 -89 124t-51 101t-23.5 81t-6.5 62q0 84 37 149.5t96.5 110.5t133 68.5t147.5 23.5q68 0 125 -19t100 -53t67.5 -82t24.5 -106q0 -55 -22.5 -106t-58 -97.5t-80.5 -88t-93 -76.5l381 -469 q35 78 50.5 154.5t15.5 140.5q0 31 -5 48t-22.5 28.5t-52.5 17.5t-94 14v86h522v-86q-61 -6 -96 -16t-55.5 -24.5t-29.5 -37t-18 -53.5q-16 -63 -54 -157.5t-95 -194.5l233 -289l197 -57v-74h-469l-143 174q-61 -61 -123 -99t-122.5 -59.5t-120.5 -28.5t-118 -7 q-129 0 -222 28.5t-153.5 79.5t-89 124t-28.5 159zM414 477q0 -66 20.5 -127t59 -110.5t96 -79t133.5 -29.5q74 0 153.5 32t151.5 91l-442 545q-33 -27 -63.5 -58.5t-55.5 -71.5t-39 -87.5t-14 -104.5zM625 1348q0 -70 31.5 -135.5t105.5 -159.5q59 57 82.5 113t23.5 132 q0 59 -11 99.5t-28.5 65t-40 34.5t-45.5 10q-47 0 -82.5 -37.5t-35.5 -121.5z" />
<glyph unicode="'" horiz-adv-x="450" d="M96 1556q0 66 35 105t94 39q61 0 95 -38t34 -97q0 -37 -11 -91.5t-24.5 -122t-26.5 -148.5t-16 -169h-102q-2 88 -14.5 168t-26.5 146.5t-25.5 120t-11.5 87.5z" />
<glyph unicode="(" horiz-adv-x="647" d="M76 625q0 176 43 343t108.5 309t146.5 251.5t154 171.5l54 -41q-31 -59 -72 -167t-78 -247t-61.5 -300t-24.5 -322q0 -190 22.5 -347t54.5 -280t68.5 -212t65.5 -146l-63 -48q-68 70 -141.5 166.5t-135 224.5t-101.5 287.5t-40 356.5z" />
<glyph unicode=")" horiz-adv-x="647" d="M66 1659l53 41q74 -61 154.5 -171t146 -252t108.5 -309t43 -343q0 -197 -39.5 -356.5t-101 -287.5t-135.5 -224.5t-141 -166.5l-64 48q29 57 66 146t68.5 212t54 279.5t22.5 347.5q0 162 -24.5 322.5t-61.5 299.5t-78 246.5t-71 167.5z" />
<glyph unicode="*" horiz-adv-x="989" d="M111 1438q0 35 24.5 65.5t65.5 30.5q35 0 56.5 -14.5t40.5 -37t39.5 -48t51.5 -45.5l66 -46l-9 82q-4 29 -11 51.5t-15 42t-14.5 38t-6.5 38.5q0 53 29 79t66 26q35 0 64.5 -25.5t29.5 -79.5q0 -23 -7.5 -40t-16.5 -37.5t-16 -43t-9 -53.5l-4 -78l65 46q31 20 51.5 45.5 t39 48t40 37t55.5 14.5q41 0 67 -30.5t26 -65.5q0 -43 -26 -64.5t-62.5 -32t-75.5 -15.5t-64 -17l-78 -35l72 -33q29 -12 68 -18t74.5 -16.5t61 -31t25.5 -65.5q0 -39 -25.5 -67.5t-64.5 -28.5q-33 0 -55 14t-40.5 35.5t-38 47.5t-48.5 48l-65 51l6 -88q2 -29 9 -50 t15 -40.5t15.5 -39t7.5 -40.5q0 -53 -29 -78.5t-67 -25.5q-37 0 -65 25.5t-28 80.5q0 20 7.5 39t16.5 38.5t16.5 43t9.5 53.5l4 82l-68 -51q-31 -23 -50.5 -48.5t-37.5 -47t-39.5 -35.5t-54.5 -14q-39 0 -64.5 28.5t-25.5 67.5q0 45 25.5 67.5t62.5 32t75.5 14.5t65.5 17 l72 33l-78 35q-29 12 -68 17t-74.5 15.5t-60 32t-24.5 64.5z" />
<glyph unicode="+" horiz-adv-x="1005" d="M84 629v133h352v352h137v-352h351v-133h-351v-355h-137v355h-352z" />
<glyph unicode="," horiz-adv-x="567" d="M104 178q0 70 49.5 115t125.5 45q86 0 134 -64.5t48 -177.5q0 -133 -71 -243.5t-200 -178.5l-49 68q68 49 112 107.5t44 99.5q0 37 -29.5 56.5t-66.5 38.5t-67 49t-30 85z" />
<glyph unicode="-" horiz-adv-x="911" d="M129 408v217h653v-217h-653z" />
<glyph unicode="." horiz-adv-x="573" d="M102 156q0 78 50.5 129t130.5 51q82 0 135 -51.5t53 -128.5q0 -78 -52 -127t-134 -49t-132.5 49t-50.5 127z" />
<glyph unicode="/" horiz-adv-x="774" d="M82 -346l410 2023h204l-411 -2023h-203z" />
<glyph unicode="0" horiz-adv-x="1318" d="M102 780q0 172 43 321.5t118 259t176 173t218 63.5t219.5 -63.5t177 -174t119 -259t44.5 -320.5q0 -170 -43.5 -316.5t-119 -254t-177 -168.5t-220.5 -61q-117 0 -218 61t-176 168.5t-118 254t-43 316.5zM477 782q0 -207 9.5 -339t31 -207.5t56 -104.5t83.5 -29t85 29 t57.5 104.5t32 207.5t10.5 339q0 205 -10.5 339t-32 213t-57.5 110t-85 31t-83.5 -31t-56 -110t-31 -213t-9.5 -339z" />
<glyph unicode="1" horiz-adv-x="931" d="M84 0v74l252 53v1133h-252v88q139 25 250.5 85t224.5 164l94 -16v-1454l258 -53v-74h-827z" />
<glyph unicode="2" horiz-adv-x="1222" d="M63 119q188 180 319.5 324.5t213.5 262t119 217t37 189.5q0 131 -64.5 210t-173.5 79q-47 0 -95 -17.5t-92 -49t-82 -76t-65 -95.5l-84 43q72 184 211 287.5t316 103.5q100 0 188 -33.5t151.5 -94t100.5 -141.5t37 -175t-35 -188.5t-115 -198.5t-211 -226t-323 -272h485 q35 35 70 87.5t73 121.5l93 -16l-170 -529h-66l-43 68h-776z" />
<glyph unicode="3" horiz-adv-x="1169" d="M70 262q0 68 40 110t105 42q47 0 74.5 -22.5t46 -56.5t33 -73t35 -72.5t52 -56t85.5 -22.5q96 0 150 77.5t54 212.5q0 166 -79.5 260.5t-216.5 94.5q-25 0 -57 -3t-54 -8l-33 91q82 33 148.5 75.5t112.5 94t71 107.5t25 116q0 82 -46.5 129t-123.5 47q-86 0 -164 -53.5 t-119 -141.5l-74 29q18 80 60.5 146.5t102.5 113.5t138 72.5t166 25.5q84 0 153.5 -23.5t120 -65.5t78 -100t27.5 -130q0 -61 -23.5 -114.5t-62.5 -96.5t-92 -73.5t-111 -45.5v-8q86 -8 158 -41t122 -88t77.5 -128t27.5 -161q0 -113 -46 -212t-125 -173t-186.5 -115.5 t-230.5 -41.5q-88 0 -164.5 21.5t-133 60t-89 90t-32.5 110.5z" />
<glyph unicode="4" horiz-adv-x="1226" d="M18 512l764 1085l164 -20v-983h191v-201h-191v-270l182 -47v-76h-745v76l246 47v270h-574zM238 602l2 -8h389v545h-8z" />
<glyph unicode="5" horiz-adv-x="1142" d="M55 246q0 66 40 108.5t106 42.5q45 0 71.5 -21.5t43 -53t28.5 -68.5t32.5 -68.5t53.5 -53t90 -21.5t105.5 22.5t83 64.5t54 98t19.5 124t-22.5 125t-63.5 99t-98 64.5t-125 22.5q-55 0 -108.5 -15.5t-96.5 -43.5h-84l121 878h557q14 16 27.5 38t36.5 65l73 -35l-90 -348 h-508l-34 -266q41 16 80.5 18t80.5 2q119 0 216.5 -34t167 -96.5t107.5 -149.5t38 -193q0 -123 -45 -227.5t-125 -181t-189.5 -119.5t-236.5 -43q-88 0 -162 20t-128 55t-85 84t-31 107z" />
<glyph unicode="6" horiz-adv-x="1236" d="M94 557q0 170 58.5 328.5t164 294t256 241t334.5 170.5l47 -82q-86 -47 -167.5 -122.5t-149.5 -164.5t-113 -184.5t-55 -177.5q37 51 102.5 79t151.5 28q98 0 181 -37t143.5 -101.5t94.5 -152.5t34 -193q0 -113 -40 -205t-112 -158.5t-172 -103t-221 -36.5 q-125 0 -224.5 39.5t-169 114.5t-106.5 181.5t-37 241.5zM440 485q0 -178 55.5 -280.5t151.5 -102.5q90 0 141.5 93.5t51.5 253.5q0 168 -55.5 266t-151.5 98q-53 0 -97 -28.5t-71 -82.5q-12 -47 -18.5 -102t-6.5 -115z" />
<glyph unicode="7" horiz-adv-x="1079" d="M35 1137l180 508l76 -17q0 -16 3 -39.5t9 -38.5h739l33 -57q-68 -147 -117 -258t-89 -205t-74.5 -182t-72.5 -191.5t-83 -232.5t-107 -305q-49 -139 -161 -139q-70 0 -110 32.5t-40 91.5q0 78 82 232l498 934h-572q-31 -31 -58.5 -70t-57.5 -98z" />
<glyph unicode="8" horiz-adv-x="1273" d="M98 401q0 121 74 212.5t227 160.5q-242 164 -241 408q0 94 34.5 171t98 131t152.5 83.5t200 29.5q104 0 189.5 -25.5t145.5 -72.5t94 -111.5t34 -144.5q0 -111 -67.5 -196t-198.5 -142q178 -98 258 -204.5t80 -243.5q0 -104 -41 -192.5t-115 -151t-175.5 -98 t-221.5 -35.5q-127 0 -224.5 31.5t-165 88t-102.5 133t-35 168.5zM385 422q0 -154 68.5 -237t195.5 -83q113 0 181.5 64.5t68.5 173.5q0 111 -92 200t-297 175q-59 -41 -92 -116t-33 -177zM422 1276q0 -92 68.5 -165.5t226.5 -149.5q133 123 133 282q0 109 -58.5 170.5 t-162.5 61.5q-96 0 -151.5 -53.5t-55.5 -145.5z" />
<glyph unicode="9" horiz-adv-x="1234" d="M59 1087q0 113 40 205t112 159t172 103.5t221 36.5q125 0 224.5 -40t169 -114.5t106.5 -181t37 -241.5q0 -170 -58.5 -329t-164 -294t-256 -241.5t-334.5 -169.5l-47 81q86 47 167.5 126t149.5 171.5t113 189.5t55 183q-37 -51 -102.5 -78.5t-151.5 -27.5 q-98 0 -181 34.5t-143.5 96t-94.5 146.5t-34 185zM395 1122q0 -160 55.5 -252t151.5 -92q53 0 97 29t71 82q12 41 18.5 92t6.5 104q0 178 -55.5 280.5t-151.5 102.5q-90 0 -141.5 -93t-51.5 -253z" />
<glyph unicode=":" horiz-adv-x="614" d="M129 147q0 68 45 119t129 51q86 0 134 -51t48 -119q0 -63 -46 -115t-136 -52q-86 0 -130 52t-44 115zM129 795q0 68 45 119t129 51q86 0 134 -51.5t48 -118.5q0 -63 -46 -115.5t-136 -52.5q-86 0 -130 52.5t-44 115.5z" />
<glyph unicode=";" horiz-adv-x="616" d="M129 158q0 70 49 114.5t125 44.5q86 0 134 -64.5t48 -176.5q0 -133 -70.5 -244t-199.5 -178l-49 67q68 49 112 107.5t44 99.5q0 37 -30 56.5t-67 39t-66.5 49t-29.5 85.5zM129 795q0 68 45 119t129 51q86 0 134 -51.5t48 -118.5q0 -63 -46 -115.5t-136 -52.5 q-86 0 -130 52.5t-44 115.5z" />
<glyph unicode="&#x3c;" horiz-adv-x="1040" d="M68 635v104l837 400v-166l-649 -275v-8l649 -278v-174z" />
<glyph unicode="=" horiz-adv-x="1118" d="M139 473v129h840v-129h-840zM139 803v129h840v-129h-840z" />
<glyph unicode="&#x3e;" horiz-adv-x="1042" d="M137 248v164l649 278v8l-649 275v176l838 -399v-105z" />
<glyph unicode="?" horiz-adv-x="862" d="M84 147q0 68 46 119t130 51q86 0 134 -51t48 -119q0 -63 -46 -115t-136 -52q-86 0 -131 52t-45 115zM158 1477q0 121 139 120q104 0 194.5 -35.5t156 -101t102 -162t36.5 -215.5q0 -195 -102 -303t-289 -114l-61 -2v-193h-141v473h114q186 0 279.5 38t93.5 105 q0 25 -9 44.5t-37 39t-79 43t-137 56.5q-147 55 -203.5 104t-56.5 103z" />
<glyph unicode="@" horiz-adv-x="1884" d="M92 412q0 205 82 373.5t217 290.5t310.5 188.5t361.5 66.5q170 0 302 -53t223 -142t138.5 -206t47.5 -242q0 -119 -41 -231.5t-113 -200.5t-169 -142.5t-210 -54.5q-45 0 -86 10.5t-70 36.5q-29 27 -42 63t-19 77h-8q-72 -72 -150 -113t-161 -41q-35 0 -78 10.5t-82 38 t-64.5 78.5t-25.5 135q0 100 40 205t111.5 191t169.5 140t215 54q76 0 113 -23.5t59 -60.5h8l19 84h240l-166 -573q-6 -23 -10.5 -41.5t-4.5 -40.5q0 -82 74 -82q51 0 104.5 34.5t94.5 96t67.5 148.5t26.5 192q0 129 -42 227.5t-117 165t-181.5 101t-235.5 34.5 q-172 0 -319.5 -59.5t-255 -163.5t-167.5 -248.5t-60 -312.5q0 -145 46 -263t137 -202t225 -129t312 -45q123 0 220.5 25.5t183.5 76.5l37 -88q-88 -59 -212.5 -91t-271.5 -32q-182 0 -333.5 50.5t-260 145.5t-169 231.5t-60.5 310.5zM727 315q0 -112 68 -112q47 0 107.5 52 t115.5 179q23 51 48.5 136t25.5 169q0 43 -12.5 69t-49.5 26q-53 0 -107.5 -51.5t-97.5 -128t-70.5 -168t-27.5 -171.5z" />
<glyph unicode="A" d="M-41 0v76q72 12 116 25.5t73.5 38t50 63.5t45.5 100l387 987l-94 211l305 117l585 -1417q14 -35 30 -57.5t39.5 -37t60 -20.5t92.5 -10v-76h-844v76q113 4 157 19.5t44 56.5q0 33 -19 81l-82 222h-461l-59 -156q-23 -61 -23 -96q0 -53 51.5 -81t180.5 -46v-76h-635z M489 571h373l-178 486h-8z" />
<glyph unicode="B" horiz-adv-x="1538" d="M86 0v76l174 45v1337l-174 43v76h690q156 0 258.5 -20.5t171.5 -63.5q80 -51 124 -129t44 -170q0 -125 -98 -211t-283 -119v-8q104 -10 188.5 -46t144.5 -93.5t93 -133t33 -165.5q0 -94 -40 -176t-112 -136q-78 -57 -190.5 -81.5t-296.5 -24.5h-727zM612 231 q0 -72 34 -97t124 -25q154 0 225.5 78.5t71.5 248.5q0 180 -92 264t-287 84h-76v-553zM612 895h23q37 0 62.5 1t45.5 5q123 12 189.5 85t66.5 200q0 141 -86 211q-87 69 -259 69h-5h-37v-571z" />
<glyph unicode="C" horiz-adv-x="1665" d="M92 778q0 180 59.5 331t167 259.5t255 168.5t325.5 60q129 0 255 -32.5t228 -91.5h9l90 104h61v-502h-98q-20 53 -42 100.5t-48 86.5q-72 111 -170.5 163t-227.5 52q-477 0 -477 -678q0 -342 120 -519.5t349 -177.5q127 0 228.5 54.5t171.5 154.5q35 53 61.5 117 t40.5 139h92v-567h-76l-84 135q-121 -82 -237.5 -118.5t-251.5 -36.5q-178 0 -325.5 58t-253 162.5t-164 252t-58.5 325.5z" />
<glyph unicode="D" horiz-adv-x="1798" d="M84 0v78l176 39v1345l-176 39v76h559q133 0 241.5 -8t196.5 -25.5t161 -46.5t134 -70q152 -100 240 -263t88 -373q0 -217 -93 -393.5t-251 -276.5q-51 -33 -105.5 -55.5t-117 -37t-135 -21.5t-158.5 -7h-760zM612 233q0 -66 48 -94t161 -28q240 0 357 137 q70 82 101.5 216t31.5 327q0 188 -32 314t-101 210q-121 147 -381 147h-185v-1229z" />
<glyph unicode="E" horiz-adv-x="1497" d="M86 0v76l174 39v1347l-174 39v76h1253l39 -451h-86q-29 80 -66.5 167t-90.5 167h-523v-571h258q35 57 55.5 115.5t32.5 115.5h86v-573h-86q-12 57 -33.5 115.5t-54.5 115.5h-258v-661h510q66 92 108 181t79 181h106l-86 -479h-1243z" />
<glyph unicode="F" horiz-adv-x="1400" d="M86 0v76l174 39v1347l-174 39v76h1253l35 -451h-80q-25 80 -60.5 167t-86.5 167h-537v-571h277q29 59 47 115.5t29 115.5h79v-573h-79q-23 121 -76 233h-277v-665l234 -39v-76h-758z" />
<glyph unicode="G" horiz-adv-x="1751" d="M92 764q0 184 60.5 336.5t170 263.5t260 172t330.5 61q137 0 257 -32.5t196 -91.5h8l90 104h66v-502h-92q-53 111 -105.5 186.5t-110 123t-124 69t-148.5 21.5q-465 0 -465 -703q0 -176 25 -304t74 -210t124.5 -121t180.5 -39q90 0 161.5 32t108.5 85q14 20 18.5 43 t4.5 72v346l-185 39v76h719v-76l-182 -39v-510q-49 -41 -122 -75t-160 -58.5t-181 -38.5t-182 -14q-180 0 -326.5 56t-251 158.5t-162 248t-57.5 321.5z" />
<glyph unicode="H" horiz-adv-x="1890" d="M86 0v76l174 43v1341l-174 41v76h698v-76l-172 -41v-569h668v569l-174 41v76h698v-76l-172 -41v-1341l172 -43v-76h-698v76l174 43v655h-668v-655l172 -43v-76h-698z" />
<glyph unicode="I" horiz-adv-x="870" d="M86 0v76l174 43v1341l-174 41v76h698v-76l-172 -41v-1341l172 -43v-76h-698z" />
<glyph unicode="J" horiz-adv-x="837" d="M-315 -313q0 78 43 116.5t104 38.5q63 0 96 -35.5t54 -91.5q23 -70 50 -100.5t64 -30.5q61 0 104.5 81t43.5 247v1548l-174 41v76h698v-76l-172 -41v-1143q0 -152 -2 -246t-10.5 -156t-21.5 -102t-36 -81q-82 -129 -216 -196.5t-279 -67.5q-166 0 -256 59t-90 160z" />
<glyph unicode="K" horiz-adv-x="1652" d="M86 0v76l174 43v1341l-174 41v76h698v-76l-172 -41v-608l492 528q16 16 22.5 34t6.5 30q0 53 -158 59v74h588v-76q-72 -12 -119 -22.5t-80 -24.5t-56.5 -33.5t-47.5 -46.5l-361 -393l623 -866l186 -39v-76h-547l-504 719l-45 -47v-553l172 -43v-76h-698z" />
<glyph unicode="L" horiz-adv-x="1431" d="M86 0v76l174 39v1347l-174 39v76h719v-76l-193 -41v-1343h510q66 92 108 181t79 181h106l-86 -479h-1243z" />
<glyph unicode="M" horiz-adv-x="2197" d="M80 0v76l182 39v1347l-180 39v76h620l426 -1057h13l444 1057h526v-76l-172 -41v-1341l172 -43v-76h-698v76l174 43v1098h-8l-514 -1237h-98l-555 1292h-9v-1157l181 -39v-76h-504z" />
<glyph unicode="N" horiz-adv-x="1798" d="M80 0v76l182 39v1347l-180 39v76h555l774 -973v858l-180 39v76h504v-76l-183 -39v-1482h-141l-1008 1269v-1134l181 -39v-76h-504z" />
<glyph unicode="O" horiz-adv-x="1779" d="M92 788q0 166 52.5 313.5t153.5 258t249.5 174t341.5 63.5t342 -63.5t250.5 -174t154 -258t52.5 -313.5t-52.5 -313t-154 -258t-251 -174t-341.5 -63q-193 0 -341.5 63t-249.5 174t-153.5 258.5t-52.5 312.5zM496 788q0 -106 15 -227t58 -224.5t120 -171t200 -67.5 q125 0 201.5 67.5t119.5 171t58.5 224.5t15.5 227t-14.5 226.5t-57.5 222.5t-120.5 170t-202.5 68q-123 0 -200 -68t-120 -170t-58 -222.5t-15 -226.5z" />
<glyph unicode="P" horiz-adv-x="1421" d="M86 0v76l174 45v1337l-174 43v76h682q137 0 248.5 -33t190.5 -93t121 -147t42 -194q0 -217 -165 -336t-470 -119h-123v-534l256 -45v-76h-782zM612 766h15q186 0 276 84q47 45 69.5 111.5t22.5 166.5q0 186 -77 265q-39 39 -99.5 56t-154.5 17h-52v-700z" />
<glyph unicode="Q" horiz-adv-x="1779" d="M92 788q0 166 52.5 313.5t153.5 258t249.5 174t341.5 63.5t342 -63.5t250.5 -174t154 -258t52.5 -313.5q0 -147 -42 -278t-122 -235.5t-198 -177t-267 -99.5v-8q47 -14 93 -32.5t94 -35t99.5 -28t108.5 -11.5q63 0 114.5 19.5t100.5 68.5l62 -41q-68 -164 -175.5 -245.5 t-220.5 -81.5q-68 0 -119 25.5t-93 65.5t-80.5 85t-80.5 85t-91.5 65.5t-114.5 25.5q-53 0 -87 -22.5t-34 -63.5q0 -18 6 -31.5t13.5 -27t13.5 -30t6 -38.5q0 -59 -42 -100t-106 -41q-66 0 -104.5 45t-38.5 112q0 84 61.5 148.5t169.5 107.5v9q-125 41 -222 115.5 t-163.5 175t-101.5 221t-35 253.5zM496 784q0 -109 15 -232.5t58 -229t120 -175t200 -69.5q125 0 201.5 69.5t119.5 176t58.5 230.5t15.5 234q0 104 -14.5 225.5t-57.5 223.5t-119.5 170t-201.5 68t-203 -68t-121 -171t-57 -224.5t-14 -227.5z" />
<glyph unicode="R" horiz-adv-x="1593" d="M86 0v76l174 45v1337l-174 43v76h739q121 0 221.5 -29.5t173 -86t112.5 -140.5t40 -193q0 -150 -74.5 -250t-212.5 -149l396 -614l186 -39v-76h-559l-412 686h-84v-565l234 -45v-76h-760zM612 797h29q113 0 180.5 29.5t110.5 80.5q45 51 63.5 113.5t18.5 128.5 q0 111 -50.5 184.5t-127.5 106.5q-35 14 -76 20t-105 6h-43v-669z" />
<glyph unicode="S" horiz-adv-x="1325" d="M109 524l86 15q33 -115 75.5 -198t99 -136t128 -79t161.5 -26q131 0 208 61.5t77 172.5q0 76 -59.5 128t-148.5 98t-192.5 94t-192.5 116t-148.5 162t-59.5 233q0 94 40 173t111 136.5t166 90t208 32.5q209 0 360 -127l49 109h68l20 -453h-90q-102 350 -395 351 q-106 0 -165.5 -51.5t-59.5 -143.5q0 -78 56 -130t142 -98t184.5 -93.5t184.5 -115t142.5 -162.5t56.5 -237q0 -98 -43 -183t-118 -147.5t-176.5 -98t-219.5 -35.5q-96 0 -185.5 24.5t-193.5 77.5l-72 -84h-63z" />
<glyph unicode="T" horiz-adv-x="1593" d="M23 1106l75 471h1397l76 -471h-80q-31 86 -74 179t-108 179h-334v-1343l244 -45v-76h-840v76l246 45v1343h-334q-66 -86 -112 -179t-77 -179h-79z" />
<glyph unicode="U" horiz-adv-x="1681" d="M53 1501v76h711v-76l-180 -39v-915q0 -211 92 -326t264 -115q188 0 283 130q47 66 68.5 174t21.5 286v766l-180 39v76h503v-76l-182 -39v-882q0 -236 -94 -383q-141 -217 -494 -217q-186 0 -327.5 56t-223.5 163q-47 59 -67.5 140t-20.5 208v915z" />
<glyph unicode="V" d="M-41 1501v76h844v-76q-115 -8 -158 -24.5t-43 -55.5q0 -25 12 -57l306 -844h12l291 758q20 53 20 92q0 55 -50 85t-177 46v76h633v-76q-70 -10 -114 -23.5t-74.5 -38t-52.5 -63.5t-46 -102l-506 -1294h-98l-578 1396q-14 35 -30.5 57.5t-40 36t-59.5 20.5t-91 11z" />
<glyph unicode="W" horiz-adv-x="2482" d="M-33 1501v76h844v-76q-66 -4 -104.5 -9t-60 -14.5t-29 -22.5t-7.5 -32q0 -27 13 -59l274 -844h12l260 678l-69 178q-14 35 -29.5 57.5t-40 36t-60.5 20.5t-91 11v76h843v-76q-113 -6 -156.5 -21.5t-43.5 -56.5q0 -27 12 -59l274 -844h13l290 758q10 25 16.5 50.5 t6.5 45.5q0 51 -51 81t-178 46v76h632v-76q-68 -10 -111.5 -23.5t-74.5 -38t-53.5 -64.5t-46.5 -101l-506 -1294h-98l-408 1038l-405 -1038h-99l-547 1396q-14 35 -29.5 57.5t-40 36t-60 20.5t-91.5 11z" />
<glyph unicode="X" horiz-adv-x="1720" d="M-14 0v76q66 8 113.5 20.5t82.5 28.5t61.5 39.5t51.5 56.5l399 537l-438 655q-14 20 -28.5 33.5t-40 23t-64.5 16.5t-103 15v76h854v-76q-111 -4 -146.5 -13t-35.5 -30q0 -14 5 -28.5t22 -38.5l252 -379l254 342q32 44 32 71q0 31 -39.5 48.5t-132.5 27.5v76h576v-76 q-66 -12 -109 -23.5t-73.5 -26.5t-52 -37.5t-46.5 -53.5l-340 -453l498 -743q14 -23 33.5 -38t45 -25.5t60.5 -15.5t82 -9v-76h-850v76q121 8 161 16t40 25q0 10 -7 25.5t-26 43.5l-311 463l-315 -426q-35 -47 -35 -80q0 -27 41 -42t131 -25v-76h-602z" />
<glyph unicode="Y" horiz-adv-x="1525" d="M-37 1501v76h846v-76q-61 -4 -102 -13t-63.5 -21.5t-32 -29t-9.5 -34.5q0 -27 19 -60l262 -514h8l235 449q39 76 39 123q0 49 -50 72.5t-177 27.5v76h618v-76q-63 -6 -103 -14t-69.5 -30.5t-57.5 -65.5t-66 -117l-318 -590v-565l172 -43v-76h-698v76l174 43v567l-391 690 q-23 39 -41.5 61.5t-44 36t-61.5 18.5t-89 9z" />
<glyph unicode="Z" horiz-adv-x="1495" d="M55 0v78l856 1386h-559l-24 -45q-59 -111 -94 -187.5t-52 -123.5h-84l105 469h1188v-76l-861 -1388h592l25 37q72 111 121 214t78 173h86l-129 -537h-1248z" />
<glyph unicode="[" horiz-adv-x="690" d="M188 -383v2062h461v-102h-221v-1860h221v-100h-461z" />
<glyph unicode="\" horiz-adv-x="774" d="M78 1677h205l409 -2023h-203z" />
<glyph unicode="]" horiz-adv-x="690" d="M41 -283h221v1860h-221v102h461v-2062h-461v100z" />
<glyph unicode="^" horiz-adv-x="993" d="M82 680l379 776h74l376 -776h-127l-284 567h-8l-281 -567h-129z" />
<glyph unicode="_" horiz-adv-x="1384" d="M129 -61h1126v-129h-1126v129z" />
<glyph unicode="`" horiz-adv-x="370" d="M20 1667q0 41 26 66.5t67 25.5q117 0 153 -135l84 -309l-63 -23l-199 228q-35 41 -51.5 78.5t-16.5 68.5z" />
<glyph unicode="a" horiz-adv-x="1198" d="M78 221q0 154 144.5 246t455.5 135v150q0 70 -6 115.5t-19.5 72.5t-38 37t-61.5 10q-78 0 -122 -37t-44 -102q0 -23 4 -45.5t4 -44.5q0 -59 -41 -98t-100 -39t-97 38.5t-38 100.5q0 66 42 129t120 115q78 51 177 76.5t210 25.5t178 -25.5t102 -76.5q25 -39 36 -99.5 t11 -175.5v-422q0 -92 18.5 -132t59.5 -40q47 0 90 49l47 -67q-129 -137 -299 -137q-100 0 -151 39.5t-68 121.5h-8q-150 -161 -336 -161q-127 0 -198.5 63t-71.5 178zM420 305q0 -133 117 -133q86 0 141 59v275q-74 -14 -124 -31.5t-80 -40t-42 -54.5t-12 -75z" />
<glyph unicode="b" horiz-adv-x="1347" d="M-10 1552v47l444 101h45v-739q70 68 156 106.5t184 38.5q100 0 183 -38t143.5 -106.5t93.5 -164t33 -209.5q0 -129 -43 -240.5t-118 -193.5t-176 -128t-218 -46q-84 0 -163 23.5t-144 70.5h-13l-176 -74h-59v1497zM479 348q0 -117 53.5 -187.5t143.5 -70.5q57 0 103 32 t79 89t50.5 139t17.5 180q0 197 -64.5 306.5t-183.5 109.5q-61 0 -111.5 -31.5t-87.5 -87.5v-479z" />
<glyph unicode="c" horiz-adv-x="1169" d="M74 528q0 125 45 231.5t125 183.5t191.5 120t244.5 43q92 0 172 -20.5t137.5 -57.5t90 -87t32.5 -107q0 -63 -37 -100.5t-100 -37.5q-39 0 -63.5 12.5t-40 32t-22.5 43t-9 45.5q-4 37 -12.5 68t-26 53.5t-44 35.5t-67.5 13q-129 0 -200.5 -105.5t-71.5 -301.5 q0 -199 75.5 -300.5t229.5 -101.5q186 0 303 136l14 16l58 -45l-11 -25q-61 -147 -178.5 -219.5t-283.5 -72.5q-121 0 -222.5 40.5t-174 113.5t-113.5 173.5t-41 220.5z" />
<glyph unicode="d" horiz-adv-x="1380" d="M76 524q0 129 41 235.5t114.5 183.5t177 120t226.5 43q59 0 118.5 -12.5t118.5 -38.5v440l-174 57v47l447 101h45v-1499l162 -51v-44l-426 -126h-37v124l-10 5q-63 -61 -149.5 -95t-186.5 -34q-98 0 -183.5 40.5t-149 113.5t-99 173.5t-35.5 216.5zM426 559 q0 -199 64.5 -315.5t183.5 -116.5q61 0 111.5 28.5t86.5 77.5v508q0 115 -53 184.5t-143 69.5q-57 0 -103.5 -31.5t-79 -89t-50 -137.5t-17.5 -178z" />
<glyph unicode="e" horiz-adv-x="1236" d="M74 526q0 129 45 235.5t126 183.5t193.5 119t249.5 42q236 0 357.5 -126t130.5 -374l-17 -12h-745q2 -403 321 -404q90 0 182.5 34t151.5 102l14 16l58 -49l-11 -25q-57 -139 -191 -213.5t-302 -74.5q-127 0 -231.5 39.5t-178 111.5t-113.5 172t-40 223zM418 690l418 17 q4 10 6 30.5t2 46.5q0 217 -182 217q-106 0 -168 -79.5t-76 -231.5z" />
<glyph unicode="f" horiz-adv-x="864" d="M29 989l28 96h181q0 82 1 139.5t5 97.5t11 66.5t17 51.5q51 119 181.5 189.5t300.5 70.5q162 0 260 -54.5t98 -146.5q0 -59 -39 -97t-102 -38q-111 0 -144 125q-16 59 -40.5 82.5t-71.5 23.5q-45 0 -82 -22.5t-53 -71.5q-16 -47 -20.5 -122.5t-4.5 -180.5v-113h276 l-28 -96h-248v-876l252 -41v-72h-744v72l175 41v876h-209z" />
<glyph unicode="g" horiz-adv-x="1196" d="M-6 -264q0 78 58.5 139.5t195.5 120.5q-59 27 -95 66.5t-36 109.5q0 43 16.5 76t53 61.5t97 54t148.5 56.5q-68 14 -126 45t-102 74t-68.5 97t-24.5 118q0 76 34.5 140t97 111.5t147.5 74t183 26.5q76 0 142.5 -15.5t122.5 -43.5q18 39 41.5 76.5t56.5 68.5t72 50.5 t88 19.5q63 0 105 -33t42 -88q0 -45 -29.5 -82t-85.5 -37q-27 0 -43 8t-29.5 18.5t-26.5 18.5t-34 8q-33 0 -54 -21.5t-34 -49.5q66 -47 103 -112t37 -134q0 -66 -33 -126.5t-94.5 -108.5t-146.5 -80.5t-189 -43.5q-121 -12 -174.5 -42.5t-53.5 -65.5t49.5 -58.5t120 -40 t151.5 -28.5t142 -27q100 -23 161.5 -57.5t94.5 -74.5t43 -82t10 -81q0 -84 -32.5 -142t-96.5 -103q-49 -35 -110.5 -58.5t-129 -39t-137.5 -22.5t-133 -7q-78 0 -176 13t-184 58q-55 29 -95 76t-40 119zM238 -236q0 -96 96 -145q86 -45 213 -45q53 0 118.5 10t120.5 33 q47 20 78 50t31 75q0 59 -68 90t-209 64q-76 16 -140 31.5t-134 31.5q-51 -35 -78.5 -87t-27.5 -108zM436 737q0 -37 5 -80t20.5 -80.5t43 -62.5t70.5 -25t72 26t45.5 66t23.5 88t7 93q0 37 -5 82t-20.5 83t-42 64.5t-69.5 26.5q-45 0 -74 -28.5t-46 -72t-23.5 -92.5 t-6.5 -88z" />
<glyph unicode="h" horiz-adv-x="1394" d="M37 1552v47l428 101h45v-719q72 55 173 90t200 35q211 0 291 -164q8 -18 14 -39.5t10 -54.5t5 -80t1 -117v-538l154 -41v-72h-615v72l144 41v458q0 109 -3 162t-18 84q-25 53 -67.5 83t-114.5 30q-102 0 -174 -72v-745l143 -41v-72h-614v72l154 41v1382z" />
<glyph unicode="i" horiz-adv-x="737" d="M49 0v72l174 41v790l-174 55v50l449 98h43v-993l164 -41v-72h-656zM203 1427q0 68 46 119t130 51q86 0 134 -51t48 -119q0 -63 -46 -115t-136 -52q-86 0 -131 52t-45 115z" />
<glyph unicode="j" horiz-adv-x="675" d="M-360 -324q0 59 36.5 93t100.5 34q47 0 76.5 -21.5t58.5 -76.5q35 -74 64.5 -102.5t72.5 -28.5q147 0 148 328v1001l-174 55v50l448 98h43v-965q0 -84 -4 -147.5t-14.5 -114.5t-26.5 -93t-41 -85q-72 -123 -173 -178t-253 -55q-164 0 -263 57t-99 151zM176 1427 q0 68 46 119t130 51q86 0 134.5 -51t48.5 -119q0 -63 -46.5 -115t-136.5 -52q-86 0 -131 52t-45 115z" />
<glyph unicode="k" horiz-adv-x="1368" d="M31 0v72l174 41v1384l-174 55v47l446 101h45v-1161l334 352q25 27 38 44t13 30q0 18 -35.5 28.5t-140.5 20.5v71h563v-71q-68 -10 -110.5 -20.5t-71.5 -23t-50.5 -30.5t-45.5 -43l-176 -178l389 -606l168 -41v-72h-475l-293 502l-107 -111v-278l178 -41v-72h-669z" />
<glyph unicode="l" horiz-adv-x="729" d="M35 0v72l174 41v1384l-174 55v50l448 98h43v-1587l164 -41v-72h-655z" />
<glyph unicode="m" horiz-adv-x="2064" d="M53 0v72l154 41v788l-150 57v48l377 100h82v-133q74 59 171 96t192 37q203 0 286 -158q74 72 179.5 115t209.5 43q211 0 291 -164q8 -18 14.5 -39.5t10.5 -54.5t5 -80t1 -117v-538l143 -41v-72h-604v72l144 41v458q0 109 -4.5 162t-16.5 84q-41 106 -182 107 q-94 0 -162 -72q4 -33 5 -80t1 -121v-538l143 -41v-72h-604v72l144 41v458q0 109 -4.5 162t-16.5 84q-41 109 -182 109q-88 0 -156 -64v-749l144 -41v-72h-615z" />
<glyph unicode="n" horiz-adv-x="1400" d="M53 958v48l418 100h45v-152q70 70 171 111t206 41q100 0 174 -43t113 -121q8 -20 14 -42.5t10 -54.5t5 -79t1 -115v-538l154 -41v-72h-614v72l143 41v458q0 59 -1 100.5t-3 69t-6 45t-11 31.5q-23 51 -68.5 78t-111.5 27q-100 0 -166 -78v-731l144 -41v-72h-615v72 l154 41v788z" />
<glyph unicode="o" horiz-adv-x="1314" d="M74 543q0 117 39 219t112.5 179t182 121t249.5 44t250 -44t182.5 -121t112.5 -179.5t39 -218.5q0 -117 -39 -219.5t-112.5 -179t-182 -120.5t-250.5 -44q-141 0 -249.5 44t-182 120.5t-112.5 179t-39 219.5zM418 543q0 -72 9 -153t34.5 -148.5t73 -112.5t122.5 -45 q74 0 121 45t74 112.5t36 148.5t9 153q0 70 -9 150.5t-35 148t-73 112.5t-123 45t-123 -45t-72.5 -112.5t-34.5 -148t-9 -150.5z" />
<glyph unicode="p" horiz-adv-x="1386" d="M20 -463l179 53v1313l-172 55v50l424 98h47v-152h10q57 72 148.5 112t193.5 40q100 0 184 -40t145.5 -111.5t95.5 -170t34 -217.5q0 -133 -42 -241.5t-121 -185.5t-189.5 -118.5t-245.5 -41.5q-55 0 -101.5 7t-93.5 23v-420l275 -53v-49h-771v49zM516 315q0 -47 15.5 -88 t43 -71.5t63.5 -48t77 -17.5q55 0 101 32t78 90t50.5 140t18.5 180q0 193 -66 303.5t-176 110.5q-63 0 -121.5 -33.5t-83.5 -87.5v-510z" />
<glyph unicode="q" horiz-adv-x="1357" d="M78 498q0 141 41 253.5t114.5 191.5t178 121t231.5 42q84 0 166 -23.5t149 -70.5h13l168 69h57v-1491l178 -53v-49h-770v49l277 53v529q-139 -139 -340 -139q-102 0 -187.5 37.5t-147 106.5t-95 164t-33.5 210zM432 555q0 -203 61.5 -315.5t178.5 -112.5q66 0 118 28.5 t91 77.5v504q0 117 -55.5 187.5t-141.5 70.5q-117 0 -184.5 -109.5t-67.5 -330.5z" />
<glyph unicode="r" horiz-adv-x="1011" d="M53 958v50l420 98h43v-186q160 188 309 188q78 0 127 -44t49 -110q0 -55 -34.5 -99t-96.5 -44q-29 0 -51 10t-45 29q-29 23 -51.5 36t-44.5 13q-16 0 -46 -10t-59 -41q-27 -29 -35 -50.5t-12 -39.5v-645l269 -41v-72h-740v72l154 41v788z" />
<glyph unicode="s" horiz-adv-x="960" d="M102 356h88q10 -135 71 -204.5t167 -69.5q78 0 126 41t48 106q0 55 -37 93t-92 69t-119.5 62.5t-120 75.5t-92.5 105.5t-37 156.5q0 315 451 315q78 0 151.5 -9.5t118.5 -25.5v-285h-80q-29 217 -204 218q-72 0 -114 -34t-42 -89q0 -53 37 -87t91 -64t118.5 -59.5 t119 -73.5t91.5 -107.5t37 -159.5q0 -166 -117 -258t-328 -92q-78 0 -166 11t-153 32z" />
<glyph unicode="t" horiz-adv-x="831" d="M35 1047l411 313l64 -10v-265h317l-30 -102h-287v-643q0 -76 4 -106.5t16 -49.5q35 -57 109 -57q35 0 66.5 12.5t60.5 44.5l47 -67q-53 -68 -138.5 -102.5t-189.5 -34.5q-61 0 -118.5 14t-96.5 43q-47 35 -62 92t-15 141v713h-146z" />
<glyph unicode="u" horiz-adv-x="1359" d="M37 1014v71h471v-561q0 -109 4 -162t16 -83q41 -113 172 -113q86 0 144 59v748l-144 41v71h461v-901l156 -57v-47l-418 -100h-45v129l-6 6q-72 -61 -165 -98t-181 -37q-98 0 -170 40.5t-111 122.5q-10 18 -15 40t-9 54.5t-5.5 78.5t-1.5 118v539z" />
<glyph unicode="v" horiz-adv-x="1292" d="M-10 1014v71h690v-71q-90 -8 -125 -22.5t-35 -45.5q0 -16 10 -43l230 -553h8l201 508q10 25 15 44.5t5 35.5q0 33 -31.5 48t-115.5 28v71h481v-71q-59 -8 -96 -17.5t-61.5 -27t-41 -44t-34.5 -69.5l-351 -876h-164l-425 946q-10 25 -21.5 40t-28 24t-43 14.5t-67.5 9.5z " />
<glyph unicode="w" horiz-adv-x="2002" d="M-2 1014v71h690v-71q-84 -4 -120 -24.5t-36 -55.5q0 -16 7 -31l178 -553h8l231 529l-18 47q-10 25 -20.5 40t-28 25t-44 14.5t-67.5 8.5v71h690v-71q-84 -4 -119.5 -24.5t-35.5 -55.5q0 -16 6 -31l178 -553h8l181 508q10 25 15 44.5t5 35.5q0 33 -33 48t-114 28v71h481 v-71q-66 -10 -106 -21.5t-63.5 -29t-36.5 -43t-28 -64.5l-329 -876h-164l-301 757l-322 -757h-158l-374 946q-10 25 -20.5 40t-28 25t-44 14.5t-67.5 8.5z" />
<glyph unicode="x" horiz-adv-x="1343" d="M4 0v72q55 8 96 19t75 28.5t62.5 42t57.5 55.5l248 270l-344 439q-16 20 -30.5 33.5t-34 23.5t-46.5 17.5t-68 13.5v71h678v-71q-63 -4 -94 -13.5t-31 -31.5q0 -20 35 -66l146 -186l147 149q41 45 41 76q0 29 -31.5 45.5t-103.5 26.5v71h500v-71q-53 -10 -89 -21.5 t-64 -28t-52.5 -38t-54.5 -52.5l-232 -235l377 -479q14 -18 28.5 -33.5t33 -26t43 -17.5t59.5 -11v-72h-674v72q84 6 112.5 14t28.5 27q0 10 -7 23.5t-32 45.5l-176 224l-180 -187q-23 -23 -32 -43t-9 -37q0 -49 152 -67v-72h-535z" />
<glyph unicode="y" horiz-adv-x="1290" d="M-16 1014v71h667v-71q-76 -6 -110.5 -19.5t-34.5 -46.5q0 -20 8 -37l238 -561h10l207 502q10 25 14 41t4 31q0 82 -164 90v71h494v-71q-57 -10 -93 -22.5t-59.5 -31t-40 -45t-32.5 -65.5l-474 -1139q-55 -133 -133 -190q-78 -53 -202 -53q-102 0 -172 44t-70 132 q0 59 39 94t92 35q47 0 82 -26t51 -79q16 -49 28.5 -63.5t41.5 -14.5q35 0 70.5 36t58.5 100l82 217l-439 989q-16 39 -51 56.5t-112 25.5z" />
<glyph unicode="z" horiz-adv-x="1169" d="M63 0v68l613 921h-354q-61 -129 -91 -197.5t-43 -113.5h-79l38 407h934v-65l-608 -924h397q45 84 80 165t51 136h80l-24 -397h-994z" />
<glyph unicode="{" horiz-adv-x="696" d="M45 637v84q106 0 151.5 52t45.5 175q0 57 -8.5 124t-18.5 132.5t-18.5 125t-8.5 106.5q0 127 73 193.5t210 66.5q47 0 93 -7.5t87 -19.5l-22 -84q-29 6 -43.5 8t-30.5 2q-135 0 -135 -163q0 -43 8 -101.5t17.5 -124t17.5 -132t8 -124.5q0 -213 -147 -270v-8 q78 -31 112.5 -89.5t34.5 -168.5q0 -59 -8 -135t-17.5 -152t-17.5 -145.5t-8 -114.5q0 -84 31.5 -121t103.5 -37q39 0 74 12l22 -90q-96 -29 -194 -28q-141 0 -205 59t-64 195q0 55 8.5 120.5t18.5 136t18.5 143.5t8.5 140q0 133 -44 186.5t-153 53.5z" />
<glyph unicode="|" horiz-adv-x="581" d="M188 -326v2003h205v-2003h-205z" />
<glyph unicode="}" horiz-adv-x="696" d="M45 -369l23 90q33 -12 73 -12q72 0 103.5 37t31.5 121q0 45 -8 114.5t-17 145.5t-17.5 151.5t-8.5 135.5q0 111 35 169t113 89v8q-147 57 -148 270q0 57 8.5 124t17.5 132.5t17 124t8 101.5q0 164 -135 163q-16 0 -30.5 -2t-42.5 -8l-23 84q41 12 87 19.5t93 7.5 q137 0 210 -66.5t73 -193.5q0 -47 -8 -106.5t-18.5 -125t-18.5 -132t-8 -124.5q0 -123 45 -175t151 -52v-84q-109 0 -152.5 -53.5t-43.5 -186.5q0 -68 8 -140.5t18.5 -143t18.5 -136t8 -120.5q0 -135 -63.5 -194.5t-204.5 -59.5q-98 0 -195 28z" />
<glyph unicode="~" horiz-adv-x="1163" d="M143 457q0 39 11.5 88t39 91t73.5 70.5t118 28.5q55 0 109.5 -16.5t108.5 -36.5t108.5 -36.5t111.5 -16.5q70 0 97.5 29.5t42.5 76.5h61q0 -41 -11.5 -89t-39 -90t-74.5 -70.5t-117 -28.5q-55 0 -109.5 17.5t-108.5 36.5t-109.5 36.5t-110.5 17.5q-70 0 -97.5 -30.5 t-41.5 -77.5h-62z" />
<glyph unicode="&#xa1;" horiz-adv-x="616" d="M123 -326q0 55 14.5 156.5t42.5 253.5l31.5 175t21 135.5t10.5 112.5t3 107h125q0 -59 3 -111t10 -110.5t19.5 -131.5t30.5 -171q16 -84 27.5 -148.5t18.5 -114.5t10.5 -87t3.5 -66q0 -207 -181 -206q-190 0 -190 206zM129 938q0 74 50 121t128 47t129 -47t51 -121 t-52 -122t-130 -48t-127 48t-49 122z" />
<glyph unicode="&#xa2;" horiz-adv-x="1099" d="M88 528q0 117 34 216.5t96.5 174t149.5 123t191 60.5v270h86v-266q80 -2 149.5 -21.5t120 -52.5t79 -76t28.5 -92q0 -53 -24.5 -84.5t-69.5 -31.5q-53 0 -82 31.5t-39 97.5q-12 78 -52 115.5t-110 45.5v-909q96 0 177 37t136 113l23 30l39 -20l-10 -27 q-47 -123 -141.5 -194.5t-223.5 -83.5v-250h-86v248q-104 6 -191 48t-148.5 113.5t-96.5 170t-35 214.5zM297 569q0 -180 67.5 -290.5t194.5 -139.5v897q-53 -10 -100 -48t-83 -98.5t-57.5 -141.5t-21.5 -179z" />
<glyph unicode="&#xa3;" horiz-adv-x="1392" d="M63 129q0 88 62.5 146.5t157.5 58.5q23 0 44 -3t50 -14q8 18 14 38t14.5 53.5t19.5 88t28 144.5h-199v125h227l45 223q121 598 500 598q57 0 107.5 -13t87 -38t57 -58.5t20.5 -72.5q0 -53 -35.5 -88t-95.5 -35q-53 0 -79.5 27.5t-43 60.5t-31 60.5t-44.5 27.5 q-18 0 -33.5 -19.5t-33 -81t-40 -175t-55.5 -301.5l-21 -115h351v-125h-379q-31 -117 -66 -211t-76 -176q102 -57 254 -57q219 0 267 137h102q0 -170 -93 -262t-263 -92q-88 0 -166 27.5t-164 88.5q-63 -55 -140 -84.5t-161 -29.5q-188 0 -189 147zM197 147q0 -49 61 -49 q67 0 104 72q-35 37 -83 37q-82 0 -82 -60z" />
<glyph unicode="&#xa4;" horiz-adv-x="1273" d="M139 365l137 135q-80 98 -79 254q0 143 79 252l-137 133l111 110l135 -137q104 80 252 80q139 0 254 -78l133 135l111 -110l-138 -135q80 -104 80 -250q0 -141 -78 -254l136 -135l-111 -111l-135 137q-104 -80 -252 -80q-145 0 -252 80l-135 -137zM350 754 q0 -61 22.5 -115.5t62.5 -96.5t91.5 -65.5t110.5 -23.5q57 0 109.5 23.5t92.5 64.5t62.5 95t22.5 116q0 61 -22.5 115.5t-62.5 95.5t-92.5 64.5t-109.5 23.5q-59 0 -110.5 -23.5t-91.5 -64.5t-62.5 -94.5t-22.5 -114.5z" />
<glyph unicode="&#xa5;" horiz-adv-x="1419" d="M63 1501v76h668v-76q-96 -16 -128 -37.5t-32 -48.5q0 -18 13 -43l229 -489h8l238 491q10 20 10 43q0 35 -35 55.5t-131 28.5v76h455v-76q-41 -8 -66.5 -17t-45 -29.5t-38 -55.5t-45.5 -96l-243 -523h229v-125h-260v-102h260v-123h-260v-311l182 -43v-76h-719v76l185 43 v311h-271v123h271v102h-271v125h238l-311 625q-12 25 -23.5 42t-25 28.5t-33 16.5t-48.5 9z" />
<glyph unicode="&#xa6;" horiz-adv-x="581" d="M193 -350v794h196v-794h-196zM193 883v794h196v-794h-196z" />
<glyph unicode="&#xa7;" horiz-adv-x="1083" d="M117 -82q0 59 39 98t98 39q47 0 77.5 -31.5t57.5 -109.5q27 -80 60.5 -106.5t93.5 -26.5q61 0 104 47t43 123q0 74 -42 127t-105.5 99t-138 90t-138 98.5t-105.5 126t-42 172.5q0 119 63.5 199.5t186.5 117.5q-49 33 -93.5 69.5t-79 83t-55 101.5t-20.5 127 q0 160 108.5 248t309.5 88q90 0 166.5 -17.5t132 -49.5t86 -76t30.5 -95q0 -59 -37.5 -98t-97.5 -39q-49 0 -80.5 33t-56.5 108q-29 78 -55.5 105.5t-79.5 27.5q-68 0 -108 -40.5t-40 -110.5q0 -72 42 -124t105.5 -96t136.5 -87t136.5 -97.5t105.5 -127t42 -177.5 q0 -119 -57.5 -201.5t-168.5 -125.5q45 -31 85 -67t71 -81t49.5 -100.5t18.5 -122.5q0 -172 -114 -266.5t-321 -94.5q-90 0 -165.5 17.5t-131 50.5t-86 76t-30.5 96zM397 750q0 -86 61.5 -143.5t145.5 -108.5q88 45 88 151q0 78 -52 134.5t-128 107.5q-115 -33 -115 -141z " />
<glyph unicode="&#xa8;" horiz-adv-x="798" d="M20 1450q0 59 41 103t113 44t115 -44t43 -103q0 -53 -40 -99t-118 -46q-76 0 -115 46t-39 99zM467 1450q0 59 41 103t113 44t114.5 -44t42.5 -103q0 -53 -40 -99t-117 -46q-76 0 -115 46t-39 99z" />
<glyph unicode="&#xa9;" horiz-adv-x="1814" d="M94 788q0 166 63.5 313.5t174 258t259 174t316.5 63.5t316.5 -63.5t259 -174t174 -258t63.5 -313.5t-63.5 -313t-174 -258t-259 -174t-316.5 -63t-316.5 63t-259 174t-174 258t-63.5 313zM227 788q0 -141 53.5 -265t145.5 -218t216 -148.5t265 -54.5t265 54.5 t216.5 148.5t144.5 218t52 265t-52 265.5t-144.5 218.5t-216 148.5t-265.5 54.5q-141 0 -265 -54.5t-216 -148.5t-145.5 -218.5t-53.5 -265.5zM502 786q0 90 30.5 166t84 130.5t126 85t158.5 30.5q68 0 125 -19.5t104 -54.5h9l43 70h26v-281h-57q-6 23 -14.5 43.5 t-26.5 51.5q-35 59 -76 83.5t-100 24.5q-111 0 -167 -82t-56 -235q0 -160 57 -244t162 -84q109 0 170 96q16 27 30.5 62t24.5 78h53v-314h-26l-47 84q-53 -45 -107.5 -65.5t-126.5 -20.5q-88 0 -160.5 29t-126 81t-83 124.5t-29.5 160.5z" />
<glyph unicode="&#xaa;" horiz-adv-x="860" d="M104 1028q0 45 20.5 83t64.5 68.5t114 56.5t168 48v88q0 66 -21.5 99.5t-70.5 33.5q-41 0 -74 -22.5t-33 -59.5q0 -10 2 -22t2 -25q0 -37 -25.5 -61.5t-53.5 -24.5q-41 0 -61.5 20.5t-20.5 53.5q0 49 41 103.5t112 88.5q41 23 91.5 32t99.5 9q66 0 116 -19t68 -52 q6 -12 9 -24.5t4 -31t2 -47t1 -71.5v-285q0 -66 10.5 -88.5t39.5 -22.5q27 0 55 29l33 -31q-70 -90 -168 -90q-125 0 -148 111l-8 2q-37 -55 -84 -84t-108 -29q-72 0 -124.5 45t-52.5 119zM297 1073q0 -43 23.5 -62.5t52.5 -19.5q72 0 98 88v131q-98 -25 -136 -57.5 t-38 -79.5z" />
<glyph unicode="&#xab;" horiz-adv-x="1001" d="M100 483v39l301 371l62 -27l-111 -362l115 -365l-61 -30zM496 483v39l301 371l61 -27l-110 -362l114 -365l-61 -30z" />
<glyph unicode="&#xac;" horiz-adv-x="1122" d="M143 502v129h840v-350h-145v221h-695z" />
<glyph unicode="&#xad;" horiz-adv-x="911" d="M129 408v217h653v-217h-653z" />
<glyph unicode="&#xae;" horiz-adv-x="1376" d="M119 1032q0 117 45 220.5t121.5 180t181 120.5t221.5 44t221.5 -44t181 -120.5t121.5 -180t45 -220.5t-45 -220t-121.5 -180t-181 -122t-221.5 -45t-221.5 45t-181 122t-121.5 180t-45 220zM217 1032q0 -98 37 -186t100.5 -153.5t149.5 -103.5t184 -38t184 38 t149.5 103.5t100.5 153.5t37 186t-37 186.5t-100.5 154t-149.5 103t-184 37.5t-184 -37.5t-149.5 -103t-100.5 -154t-37 -186.5zM475 772v35l41 14v482l-41 14v24h217q92 0 151.5 -40.5t59.5 -118.5q0 -96 -100 -135l96 -226l55 -14v-35h-176l-96 258h-49v-209l55 -14v-35 h-213zM633 1081q25 0 50.5 5.5t47 17.5t35.5 33.5t14 52.5q0 100 -147 100v-209z" />
<glyph unicode="&#xaf;" horiz-adv-x="669" d="M20 1421v197h629v-197h-629z" />
<glyph unicode="&#xb0;" horiz-adv-x="659" d="M82 1450q0 51 19.5 97t52 80t77.5 53.5t99 19.5q51 0 96 -19.5t79 -53.5t53.5 -80t19.5 -97q0 -53 -19.5 -98t-52.5 -78t-79 -52.5t-97 -19.5q-53 0 -98.5 19.5t-78 52.5t-52 78t-19.5 98zM197 1450q0 -57 37.5 -95t95.5 -38q59 0 96 38t37 95q0 59 -37 98t-96 39 q-57 0 -95 -39t-38 -98z" />
<glyph unicode="&#xb1;" horiz-adv-x="1138" d="M150 201v133h839v-133h-839zM150 848v133h352v352h137v-352h350v-133h-350v-354h-137v354h-352z" />
<glyph unicode="&#xb2;" horiz-adv-x="950" d="M47 946q141 115 240.5 207t162 168t90 139.5t27.5 122.5q0 86 -48 135t-130 49q-72 0 -142.5 -44t-111.5 -111l-78 30q59 123 170 191t252 68q82 0 154 -23t125 -61.5t82.5 -92t29.5 -114.5t-25.5 -120.5t-86 -126.5t-160.5 -144.5t-250 -174.5h348q29 23 52.5 54.5 t54.5 79.5l84 -13l-135 -354h-58l-39 47h-594z" />
<glyph unicode="&#xb3;" horiz-adv-x="909" d="M39 1030q0 45 33.5 74t89.5 29q57 0 80.5 -31t42 -68t45 -67.5t86.5 -30.5q66 0 98.5 47t32.5 135q0 111 -55.5 171.5t-159.5 60.5q-20 0 -46 -1t-38 -6l-31 64q129 41 205 109.5t76 142.5q0 51 -34 80.5t-95 29.5q-59 0 -119 -33.5t-90 -86.5l-64 20q29 104 127.5 168 t239.5 64t225 -57.5t84 -153.5q0 -41 -19.5 -77t-52 -64.5t-74.5 -48t-87 -25.5v-9q139 -10 223 -80.5t84 -187.5q0 -74 -37 -138.5t-100.5 -112.5t-149.5 -75.5t-184 -27.5q-72 0 -132.5 14t-106.5 40t-71.5 59.5t-25.5 72.5z" />
<glyph unicode="&#xb4;" horiz-adv-x="370" d="M20 1315l84 309q37 135 154 135q41 0 66.5 -25.5t25.5 -66.5q0 -31 -16.5 -68.5t-50.5 -78.5l-199 -228z" />
<glyph unicode="&#xb5;" horiz-adv-x="1382" d="M156 -293q0 43 5 108.5t10 141.5t10 154.5t5 148.5v825h318v-606q0 -100 5 -149t19 -78q37 -86 150 -86q96 0 162 59v860h317v-901l156 -57v-47l-416 -100h-45v133l-8 2q-86 -135 -232 -135q-162 0 -213 167l-6 -4q0 -92 13.5 -159.5t29 -122t28.5 -104.5t13 -109 q0 -80 -46 -130t-118 -50q-78 0 -117.5 61t-39.5 178z" />
<glyph unicode="&#xb6;" horiz-adv-x="1300" d="M59 1135q0 100 33 182t94.5 139t149.5 89t199 32h669v-82l-160 -35v-1681h-153v1685h-141v-1685h-152v917h-115q-98 0 -176 35t-133 95.5t-85 139t-30 169.5z" />
<glyph unicode="&#xb7;" horiz-adv-x="608" d="M121 588q0 78 50 129t130 51q82 0 135 -51t53 -129t-52 -127t-134 -49t-132 49t-50 127z" />
<glyph unicode="&#xb8;" horiz-adv-x="512" d="M20 -477l39 92q55 -29 111 -29q47 0 76.5 23.5t29.5 52.5t-21.5 45.5t-55.5 16.5q-20 0 -47 -4.5t-48 -12.5l-28 19l123 309h116l-59 -154q111 0 173.5 -57t62.5 -143q0 -90 -73 -148.5t-198 -58.5q-59 0 -113.5 13t-87.5 36z" />
<glyph unicode="&#xb9;" horiz-adv-x="819" d="M100 1677v64q117 14 204 53t177 107l88 -11v-944l199 -37v-51h-666v51l191 37v731h-193z" />
<glyph unicode="&#xba;" horiz-adv-x="868" d="M84 1231q0 80 26.5 146.5t73.5 115.5t110.5 76.5t139.5 27.5t139.5 -27.5t110.5 -76.5t73.5 -115.5t26.5 -146.5t-26.5 -146.5t-73.5 -115.5t-110.5 -77t-139.5 -28t-139.5 28t-110.5 77t-73.5 115.5t-26.5 146.5zM287 1231q0 -131 37.5 -204t107.5 -73q72 0 111 74 t39 205q0 129 -38 200.5t-110 71.5t-109.5 -71.5t-37.5 -202.5z" />
<glyph unicode="&#xbb;" horiz-adv-x="1001" d="M139 139l115 365l-111 362l62 27l301 -371v-39l-305 -374zM535 139l114 365l-110 362l61 27l301 -371v-39l-305 -374z" />
<glyph unicode="&#xbc;" horiz-adv-x="2117" d="M92 1380v64q117 14 204 53t177 107l88 -11v-944l199 -37v-51h-666v51l191 37v731h-193zM557 0l950 1577h215l-952 -1577h-213zM1159 340l578 702l159 -12v-643h148v-135h-148v-166l142 -33v-53h-613v53l191 33v166h-422zM1337 395l2 -8h277v342h-8z" />
<glyph unicode="&#xbd;" horiz-adv-x="2158" d="M88 1380v64q117 14 204 53t177 107l88 -11v-944l199 -37v-51h-666v51l191 37v731h-193zM473 0l950 1577h215l-952 -1577h-213zM1247 88q141 115 240.5 207t162 168t90 139.5t27.5 122.5q0 86 -48 135t-130 49q-72 0 -142.5 -44t-111.5 -111l-78 30q59 123 170 190.5 t252 67.5q82 0 154 -22.5t125 -61t83 -92t30 -114.5t-26 -121t-86.5 -126.5t-160.5 -144t-250 -174.5h348q29 23 52.5 54.5t54.5 78.5l84 -12l-135 -354h-58l-39 47h-593z" />
<glyph unicode="&#xbe;" horiz-adv-x="2125" d="M72 727q0 45 33.5 73.5t89.5 28.5q57 0 80.5 -30.5t42 -67.5t45 -67.5t86.5 -30.5q66 0 98.5 47t32.5 135q0 111 -55.5 171.5t-159.5 60.5q-20 0 -46 -1.5t-38 -5.5l-31 64q129 41 204.5 109.5t75.5 142.5q0 51 -33.5 80.5t-95.5 29.5q-59 0 -118.5 -33.5t-89.5 -86.5 l-64 20q29 104 127 167.5t240 63.5q141 0 225 -57t84 -154q0 -41 -19.5 -76.5t-52.5 -64t-75 -48t-87 -26.5v-8q139 -10 223.5 -80.5t84.5 -187.5q0 -74 -37 -138.5t-100.5 -112.5t-149.5 -75.5t-184 -27.5q-72 0 -132.5 14t-106.5 40t-71.5 59.5t-25.5 72.5zM563 0 l950 1577h216l-953 -1577h-213zM1167 340l578 702l160 -12v-643h147v-135h-147v-166l141 -33v-53h-612v53l190 33v166h-422zM1346 395l2 -8h276v342h-8z" />
<glyph unicode="&#xbf;" horiz-adv-x="913" d="M68 -18q0 195 102 303t289 114l61 2v193h142v-473h-115q-186 0 -279.5 -38t-93.5 -106q0 -25 8 -44t36 -38.5t80 -43t138 -56.5q147 -55 203.5 -104t56.5 -103q0 -121 -139 -120q-104 0 -194.5 35.5t-156 101t-102 161t-36.5 216.5zM412 918q0 63 46 115t136 52 q86 0 131 -52t45 -115q0 -68 -46 -119t-130 -51q-86 0 -134 51t-48 119z" />
<glyph unicode="&#xc0;" d="M-41 0v76q72 12 116 25.5t73.5 38t50 63.5t45.5 100l387 987l-94 211l305 117l585 -1417q14 -35 30 -57.5t39.5 -37t60 -20.5t92.5 -10v-76h-844v76q113 4 157 19.5t44 56.5q0 33 -19 81l-82 222h-461l-59 -156q-23 -61 -23 -96q0 -53 51.5 -81t180.5 -46v-76h-635z M453 1862q0 43 29.5 76.5t82.5 33.5q27 0 58.5 -11t66.5 -38l256 -192l-35 -58l-338 66q-66 12 -93 48t-27 75zM489 571h373l-178 486h-8z" />
<glyph unicode="&#xc1;" d="M-41 0v76q72 12 116 25.5t73.5 38t50 63.5t45.5 100l387 987l-94 211l305 117l585 -1417q14 -35 30 -57.5t39.5 -37t60 -20.5t92.5 -10v-76h-844v76q113 4 157 19.5t44 56.5q0 33 -19 81l-82 222h-461l-59 -156q-23 -61 -23 -96q0 -53 51.5 -81t180.5 -46v-76h-635z M475 1731l256 192q35 27 66.5 38t58.5 11q53 0 83 -33.5t30 -76.5q0 -39 -28 -75t-93 -48l-338 -66zM489 571h373l-178 486h-8z" />
<glyph unicode="&#xc2;" d="M-41 0v76q72 12 116 25.5t73.5 38t50 63.5t45.5 100l387 987l-94 211l305 117l585 -1417q14 -35 30 -57.5t39.5 -37t60 -20.5t92.5 -10v-76h-844v76q113 4 157 19.5t44 56.5q0 33 -19 81l-82 222h-461l-59 -156q-23 -61 -23 -96q0 -53 51.5 -81t180.5 -46v-76h-635z M365 1726l208 172q41 35 74 51.5t74 16.5q35 0 66.5 -16.5t72.5 -51.5l213 -172l-33 -45l-321 84l-322 -84zM489 571h373l-178 486h-8z" />
<glyph unicode="&#xc3;" d="M-41 0v76q72 12 116 25.5t73.5 38t50 63.5t45.5 100l387 987l-94 211l305 117l585 -1417q14 -35 30 -57.5t39.5 -37t60 -20.5t92.5 -10v-76h-844v76q113 4 157 19.5t44 56.5q0 33 -19 81l-82 222h-461l-59 -156q-23 -61 -23 -96q0 -53 51.5 -81t180.5 -46v-76h-635z M408 1681q0 145 61 218t158 73q39 0 69.5 -11t58 -25.5t56.5 -26t63 -11.5q102 0 123 78h80q0 -141 -52 -219t-157 -78q-43 0 -73.5 12.5t-58 28t-56.5 27.5t-68 12q-53 0 -85.5 -21.5t-39.5 -56.5h-79zM489 571h373l-178 486h-8z" />
<glyph unicode="&#xc4;" d="M-41 0v76q72 12 116 25.5t73.5 38t50 63.5t45.5 100l387 987l-94 211l305 117l585 -1417q14 -35 30 -57.5t39.5 -37t60 -20.5t92.5 -10v-76h-844v76q113 4 157 19.5t44 56.5q0 33 -19 81l-82 222h-461l-59 -156q-23 -61 -23 -96q0 -53 51.5 -81t180.5 -46v-76h-635z M381 1835q0 55 38 98t107 43q70 0 110 -43t40 -98q0 -49 -38 -93t-112 -44q-72 0 -108.5 44t-36.5 93zM489 571h373l-178 486h-8zM805 1835q0 55 38 98t107 43q70 0 110 -43t40 -98q0 -49 -37 -93t-113 -44q-72 0 -108.5 44t-36.5 93z" />
<glyph unicode="&#xc5;" d="M-41 0v76q72 12 116 25.5t73.5 38t50 63.5t45.5 100l387 987l-94 211l305 117l585 -1417q14 -35 30 -57.5t39.5 -37t60 -20.5t92.5 -10v-76h-844v76q113 4 157 19.5t44 56.5q0 33 -19 81l-82 222h-461l-59 -156q-23 -61 -23 -96q0 -53 51.5 -81t180.5 -46v-76h-635z M489 571h373l-178 486h-8zM551 1843q0 61 41 102.5t102 41.5t102.5 -41t41.5 -103q0 -61 -41.5 -102t-102.5 -41q-66 0 -104.5 41t-38.5 102zM653 1843q0 -41 41 -41t41 41t-41 41t-41 -41z" />
<glyph unicode="&#xc6;" horiz-adv-x="2238" d="M-55 0v76q78 12 130 26.5t90 40t66.5 63.5t59.5 97l622 1182l-127 37v55h1295l39 -451h-86q-25 82 -65 168t-93 166h-522v-571h258q68 113 88 231h86v-573h-86q-20 119 -88 231h-258v-661h510q66 92 108.5 177t77.5 185h107l-86 -479h-1244v76l174 39v475h-411l-150 -291 q-18 -37 -29.5 -66.5t-11.5 -52.5q0 -43 37 -67.5t121 -36.5v-76h-612zM647 700h354v666h-8z" />
<glyph unicode="&#xc7;" horiz-adv-x="1665" d="M92 778q0 180 59.5 331t167 259.5t255 168.5t325.5 60q129 0 255 -32.5t228 -91.5h9l90 104h61v-502h-98q-20 53 -42 100.5t-48 86.5q-72 111 -170.5 163t-227.5 52q-477 0 -477 -678q0 -342 120 -519.5t349 -177.5q127 0 228.5 54.5t171.5 154.5q35 53 61.5 117 t40.5 139h92v-567h-76l-84 135q-111 -74 -215 -110.5t-223 -42.5l-37 -101q111 0 173.5 -57t62.5 -143q0 -90 -73 -148.5t-198 -58.5q-59 0 -113 13t-87 36l39 92q55 -29 110 -29q47 0 77 23.5t30 52.5t-21.5 45.5t-56.5 16.5q-20 0 -47 -4.5t-47 -12.5l-29 19l100 256 q-164 10 -300 72.5t-232 166t-149.5 245.5t-53.5 312z" />
<glyph unicode="&#xc8;" horiz-adv-x="1497" d="M86 0v76l174 39v1347l-174 39v76h1253l39 -451h-86q-29 80 -66.5 167t-90.5 167h-523v-571h258q35 57 55.5 115.5t32.5 115.5h86v-573h-86q-12 57 -33.5 115.5t-54.5 115.5h-258v-661h510q66 92 108 181t79 181h106l-86 -479h-1243zM483 1862q0 43 30 76.5t83 33.5 q27 0 58.5 -11t66.5 -38l256 -192l-35 -58l-338 66q-66 12 -93.5 48t-27.5 75z" />
<glyph unicode="&#xc9;" horiz-adv-x="1497" d="M86 0v76l174 39v1347l-174 39v76h1253l39 -451h-86q-29 80 -66.5 167t-90.5 167h-523v-571h258q35 57 55.5 115.5t32.5 115.5h86v-573h-86q-12 57 -33.5 115.5t-54.5 115.5h-258v-661h510q66 92 108 181t79 181h106l-86 -479h-1243zM547 1731l256 192q35 27 66.5 38 t58.5 11q53 0 82.5 -33.5t29.5 -76.5q0 -39 -27.5 -75t-92.5 -48l-338 -66z" />
<glyph unicode="&#xca;" horiz-adv-x="1497" d="M86 0v76l174 39v1347l-174 39v76h1253l39 -451h-86q-29 80 -66.5 167t-90.5 167h-523v-571h258q35 57 55.5 115.5t32.5 115.5h86v-573h-86q-12 57 -33.5 115.5t-54.5 115.5h-258v-661h510q66 92 108 181t79 181h106l-86 -479h-1243zM422 1726l209 172q41 35 73.5 51.5 t73.5 16.5q35 0 67 -16.5t73 -51.5l212 -172l-32 -45l-322 84l-321 -84z" />
<glyph unicode="&#xcb;" horiz-adv-x="1497" d="M86 0v76l174 39v1347l-174 39v76h1253l39 -451h-86q-29 80 -66.5 167t-90.5 167h-523v-571h258q35 57 55.5 115.5t32.5 115.5h86v-573h-86q-12 57 -33.5 115.5t-54.5 115.5h-258v-661h510q66 92 108 181t79 181h106l-86 -479h-1243zM399 1837q0 55 38 98t108 43 t109.5 -43t39.5 -98q0 -49 -38 -93t-111 -44q-72 0 -109 44t-37 93zM823 1837q0 55 38 98t108 43t109.5 -43t39.5 -98q0 -49 -37 -93t-112 -44q-72 0 -109 44t-37 93z" />
<glyph unicode="&#xcc;" horiz-adv-x="870" d="M86 0v76l174 43v1341l-174 41v76h698v-76l-172 -41v-1341l172 -43v-76h-698zM197 1862q0 43 29.5 76.5t82.5 33.5q27 0 58.5 -11t66.5 -38l256 -192l-35 -58l-338 66q-66 12 -93 48t-27 75z" />
<glyph unicode="&#xcd;" horiz-adv-x="870" d="M86 0v76l174 43v1341l-174 41v76h698v-76l-172 -41v-1341l172 -43v-76h-698zM199 1735l256 192q35 27 66.5 38t58.5 11q53 0 82.5 -33.5t29.5 -76.5q0 -39 -27.5 -75t-93.5 -48l-338 -66z" />
<glyph unicode="&#xce;" horiz-adv-x="870" d="M86 0v76l174 43v1341l-174 41v76h698v-76l-172 -41v-1341l172 -43v-76h-698zM88 1729l209 172q41 35 73.5 51t73.5 16q35 0 67 -16.5t73 -50.5l213 -172l-33 -46l-322 84l-321 -84z" />
<glyph unicode="&#xcf;" horiz-adv-x="870" d="M76 1835q0 55 38 98t107 43q70 0 110 -43t40 -98q0 -49 -38 -93t-112 -44q-72 0 -108.5 44t-36.5 93zM86 0v76l174 43v1341l-174 41v76h698v-76l-172 -41v-1341l172 -43v-76h-698zM500 1835q0 55 37.5 98t107.5 43t110 -43t40 -98q0 -49 -37 -93t-113 -44 q-72 0 -108.5 44t-36.5 93z" />
<glyph unicode="&#xd0;" horiz-adv-x="1798" d="M84 0v78l176 39v608h-154v174h154v563l-176 39v76h559q133 0 241.5 -8t196.5 -25.5t161 -46.5t134 -70q152 -100 240 -263t88 -373q0 -217 -93 -393.5t-251 -276.5q-51 -33 -105.5 -55.5t-117 -37t-135 -21.5t-158.5 -7h-760zM612 233q0 -66 48 -94t161 -28 q240 0 357 137q70 82 101.5 216t31.5 327q0 188 -32 314t-101 210q-121 147 -381 147h-185v-563h287v-174h-287v-492z" />
<glyph unicode="&#xd1;" horiz-adv-x="1798" d="M80 0v76l182 39v1347l-180 39v76h555l774 -973v858l-180 39v76h504v-76l-183 -39v-1482h-141l-1008 1269v-1134l181 -39v-76h-504zM641 1681q0 145 61.5 218t157.5 73q39 0 70 -11t58.5 -25.5t56 -26t63.5 -11.5q102 0 123 78h80q0 -141 -52.5 -219t-156.5 -78 q-43 0 -74 12.5t-58.5 28t-56 27.5t-67.5 12q-53 0 -86 -21.5t-39 -56.5h-80z" />
<glyph unicode="&#xd2;" horiz-adv-x="1779" d="M92 788q0 166 52.5 313.5t153.5 258t249.5 174t341.5 63.5t342 -63.5t250.5 -174t154 -258t52.5 -313.5t-52.5 -313t-154 -258t-251 -174t-341.5 -63q-193 0 -341.5 63t-249.5 174t-153.5 258.5t-52.5 312.5zM496 788q0 -106 15 -227t58 -224.5t120 -171t200 -67.5 q125 0 201.5 67.5t119.5 171t58.5 224.5t15.5 227t-14.5 226.5t-57.5 222.5t-120.5 170t-202.5 68q-123 0 -200 -68t-120 -170t-58 -222.5t-15 -226.5zM637 1862q0 43 29.5 76.5t83.5 33.5q27 0 58.5 -11t65.5 -38l256 -192l-34 -58l-338 66q-66 12 -93.5 48t-27.5 75z" />
<glyph unicode="&#xd3;" horiz-adv-x="1779" d="M92 788q0 166 52.5 313.5t153.5 258t249.5 174t341.5 63.5t342 -63.5t250.5 -174t154 -258t52.5 -313.5t-52.5 -313t-154 -258t-251 -174t-341.5 -63q-193 0 -341.5 63t-249.5 174t-153.5 258.5t-52.5 312.5zM496 788q0 -106 15 -227t58 -224.5t120 -171t200 -67.5 q125 0 201.5 67.5t119.5 171t58.5 224.5t15.5 227t-14.5 226.5t-57.5 222.5t-120.5 170t-202.5 68q-123 0 -200 -68t-120 -170t-58 -222.5t-15 -226.5zM678 1731l256 192q35 27 66.5 38t58.5 11q53 0 82.5 -33.5t29.5 -76.5q0 -39 -27.5 -75t-92.5 -48l-338 -66z" />
<glyph unicode="&#xd4;" horiz-adv-x="1779" d="M92 788q0 166 52.5 313.5t153.5 258t249.5 174t341.5 63.5t342 -63.5t250.5 -174t154 -258t52.5 -313.5t-52.5 -313t-154 -258t-251 -174t-341.5 -63q-193 0 -341.5 63t-249.5 174t-153.5 258.5t-52.5 312.5zM496 788q0 -106 15 -227t58 -224.5t120 -171t200 -67.5 q125 0 201.5 67.5t119.5 171t58.5 224.5t15.5 227t-14.5 226.5t-57.5 222.5t-120.5 170t-202.5 68q-123 0 -200 -68t-120 -170t-58 -222.5t-15 -226.5zM553 1726l209 172q41 35 73.5 51.5t73.5 16.5q35 0 67 -16.5t73 -51.5l213 -172l-33 -45l-322 84l-321 -84z" />
<glyph unicode="&#xd5;" horiz-adv-x="1779" d="M92 788q0 166 52.5 313.5t153.5 258t249.5 174t341.5 63.5t342 -63.5t250.5 -174t154 -258t52.5 -313.5t-52.5 -313t-154 -258t-251 -174t-341.5 -63q-193 0 -341.5 63t-249.5 174t-153.5 258.5t-52.5 312.5zM496 788q0 -106 15 -227t58 -224.5t120 -171t200 -67.5 q125 0 201.5 67.5t119.5 171t58.5 224.5t15.5 227t-14.5 226.5t-57.5 222.5t-120.5 170t-202.5 68q-123 0 -200 -68t-120 -170t-58 -222.5t-15 -226.5zM571 1681q0 145 61.5 218t158.5 73q39 0 69.5 -11t58 -25.5t56.5 -26t63 -11.5q102 0 123 78h80q0 -141 -52 -219 t-157 -78q-43 0 -73.5 12.5t-58.5 28t-56.5 27.5t-67.5 12q-53 0 -86 -21.5t-39 -56.5h-80z" />
<glyph unicode="&#xd6;" horiz-adv-x="1779" d="M92 788q0 166 52.5 313.5t153.5 258t249.5 174t341.5 63.5t342 -63.5t250.5 -174t154 -258t52.5 -313.5t-52.5 -313t-154 -258t-251 -174t-341.5 -63q-193 0 -341.5 63t-249.5 174t-153.5 258.5t-52.5 312.5zM496 788q0 -106 15 -227t58 -224.5t120 -171t200 -67.5 q125 0 201.5 67.5t119.5 171t58.5 224.5t15.5 227t-14.5 226.5t-57.5 222.5t-120.5 170t-202.5 68q-123 0 -200 -68t-120 -170t-58 -222.5t-15 -226.5zM551 1837q0 55 38 98t107 43q70 0 110 -43t40 -98q0 -49 -38 -93t-112 -44q-72 0 -108.5 44t-36.5 93zM975 1837 q0 55 38 98t107 43q70 0 110 -43t40 -98q0 -49 -37 -93t-113 -44q-72 0 -108.5 44t-36.5 93z" />
<glyph unicode="&#xd7;" horiz-adv-x="991" d="M119 420l276 276l-274 275l100 100l275 -274l274 274l104 -102l-276 -277l274 -272l-100 -101l-274 273l-277 -277z" />
<glyph unicode="&#xd8;" horiz-adv-x="1775" d="M90 788q0 166 52.5 313.5t153.5 258t249.5 174t341.5 63.5q150 0 272.5 -39.5t218.5 -109.5l111 129h160l-181 -209q106 -111 162 -259t56 -321q0 -166 -52.5 -313t-154 -258t-250.5 -174t-342 -63q-147 0 -269 37.5t-219 107.5l-106 -125h-158l174 203 q-109 111 -164 261t-55 324zM494 788q0 -78 7 -162.5t27 -168.5l678 790q-43 98 -119.5 163t-199.5 65t-200 -68t-120 -170t-58 -222t-15 -227zM571 324q43 -98 119 -162t197 -64q125 0 201.5 67.5t119.5 171t58.5 224.5t15.5 227q0 76 -7 160t-26 164z" />
<glyph unicode="&#xd9;" horiz-adv-x="1681" d="M53 1501v76h711v-76l-180 -39v-915q0 -211 92 -326t264 -115q188 0 283 130q47 66 68.5 174t21.5 286v766l-180 39v76h503v-76l-182 -39v-882q0 -236 -94 -383q-141 -217 -494 -217q-186 0 -327.5 56t-223.5 163q-47 59 -67.5 140t-20.5 208v915zM692 1862q0 43 30 76.5 t83 33.5q27 0 58.5 -11t66.5 -38l256 -192l-35 -58l-338 66q-66 12 -93.5 48t-27.5 75z" />
<glyph unicode="&#xda;" horiz-adv-x="1681" d="M53 1501v76h711v-76l-180 -39v-915q0 -211 92 -326t264 -115q188 0 283 130q47 66 68.5 174t21.5 286v766l-180 39v76h503v-76l-182 -39v-882q0 -236 -94 -383q-141 -217 -494 -217q-186 0 -327.5 56t-223.5 163q-47 59 -67.5 140t-20.5 208v915zM713 1731l256 192 q35 27 66.5 38t58.5 11q53 0 82.5 -33.5t29.5 -76.5q0 -39 -27.5 -75t-93.5 -48l-337 -66z" />
<glyph unicode="&#xdb;" horiz-adv-x="1681" d="M53 1501v76h711v-76l-180 -39v-915q0 -211 92 -326t264 -115q188 0 283 130q47 66 68.5 174t21.5 286v766l-180 39v76h503v-76l-182 -39v-882q0 -236 -94 -383q-141 -217 -494 -217q-186 0 -327.5 56t-223.5 163q-47 59 -67.5 140t-20.5 208v915zM598 1726l209 172 q41 35 73.5 51.5t73.5 16.5q35 0 67 -16.5t73 -51.5l213 -172l-33 -45l-322 84l-321 -84z" />
<glyph unicode="&#xdc;" horiz-adv-x="1681" d="M53 1501v76h711v-76l-180 -39v-915q0 -211 92 -326t264 -115q188 0 283 130q47 66 68.5 174t21.5 286v766l-180 39v76h503v-76l-182 -39v-882q0 -236 -94 -383q-141 -217 -494 -217q-186 0 -327.5 56t-223.5 163q-47 59 -67.5 140t-20.5 208v915zM604 1780q0 55 38 98 t108 43t109.5 -43t39.5 -98q0 -49 -38 -93.5t-111 -44.5q-72 0 -109 44.5t-37 93.5zM1028 1780q0 55 38 98t108 43t109.5 -43t39.5 -98q0 -49 -37 -93.5t-112 -44.5q-72 0 -109 44.5t-37 93.5z" />
<glyph unicode="&#xdd;" horiz-adv-x="1525" d="M-37 1501v76h846v-76q-61 -4 -102 -13t-63.5 -21.5t-32 -29t-9.5 -34.5q0 -27 19 -60l262 -514h8l235 449q39 76 39 123q0 49 -50 72.5t-177 27.5v76h618v-76q-63 -6 -103 -14t-69.5 -30.5t-57.5 -65.5t-66 -117l-318 -590v-565l172 -43v-76h-698v76l174 43v567l-391 690 q-23 39 -41.5 61.5t-44 36t-61.5 18.5t-89 9zM641 1731l256 192q35 27 66.5 38t58.5 11q53 0 83 -33.5t30 -76.5q0 -39 -28 -75t-93 -48l-338 -66z" />
<glyph unicode="&#xde;" horiz-adv-x="1425" d="M86 0v76l174 45v1335l-174 45v76h782v-76l-256 -45v-201h156q137 0 248.5 -32.5t190.5 -93t121 -147.5t42 -194q0 -217 -165 -335.5t-470 -118.5h-123v-213l256 -45v-76h-782zM612 444h15q186 0 276 84q47 45 69.5 112t22.5 167q0 186 -77 264q-39 39 -99.5 56.5 t-154.5 17.5h-52v-701z" />
<glyph unicode="&#xdf;" horiz-adv-x="1548" d="M47 948l29 96h155v13q0 82 2.5 142.5t7.5 104.5t13 76.5t20 59.5q27 59 78 107t120 82t152 52.5t175 18.5q203 0 321.5 -83t118.5 -224q0 -84 -37 -151.5t-82 -125t-82 -108t-37 -101.5q0 -47 37 -78.5t91.5 -59.5t119 -58.5t118.5 -75.5t91 -111.5t37 -167.5 q0 -180 -108.5 -278t-313.5 -98q-74 0 -150.5 11t-129.5 32l-13 333h88q8 -133 58.5 -203.5t138.5 -70.5q68 0 111 46t43 118q0 53 -34 91t-85 69.5t-109.5 62.5t-110 71t-85 95t-33.5 137t30.5 158t67.5 150.5t67.5 151.5t30.5 163q0 201 -202 200q-59 0 -99.5 -19.5 t-64 -65.5t-33.5 -122.5t-10 -189.5v-1085l149 -41v-72h-641v72l174 41v835h-184z" />
<glyph unicode="&#xe0;" horiz-adv-x="1198" d="M78 221q0 154 144.5 246t455.5 135v150q0 70 -6 115.5t-19.5 72.5t-38 37t-61.5 10q-78 0 -122 -37t-44 -102q0 -23 4 -45.5t4 -44.5q0 -59 -41 -98t-100 -39t-97 38.5t-38 100.5q0 66 42 129t120 115q78 51 177 76.5t210 25.5t178 -25.5t102 -76.5q25 -39 36 -99.5 t11 -175.5v-422q0 -92 18.5 -132t59.5 -40q47 0 90 49l47 -67q-129 -137 -299 -137q-100 0 -151 39.5t-68 121.5h-8q-150 -161 -336 -161q-127 0 -198.5 63t-71.5 178zM420 305q0 -133 117 -133q86 0 141 59v275q-74 -14 -124 -31.5t-80 -40t-42 -54.5t-12 -75zM463 1667 q0 41 25.5 66.5t66.5 25.5q117 0 154 -135l84 -309l-64 -23l-199 228q-35 41 -51 78.5t-16 68.5z" />
<glyph unicode="&#xe1;" horiz-adv-x="1198" d="M78 221q0 154 144.5 246t455.5 135v150q0 70 -6 115.5t-19.5 72.5t-38 37t-61.5 10q-78 0 -122 -37t-44 -102q0 -23 4 -45.5t4 -44.5q0 -59 -41 -98t-100 -39t-97 38.5t-38 100.5q0 66 42 129t120 115q78 51 177 76.5t210 25.5t178 -25.5t102 -76.5q25 -39 36 -99.5 t11 -175.5v-422q0 -92 18.5 -132t59.5 -40q47 0 90 49l47 -67q-129 -137 -299 -137q-100 0 -151 39.5t-68 121.5h-8q-150 -161 -336 -161q-127 0 -198.5 63t-71.5 178zM420 305q0 -133 117 -133q86 0 141 59v275q-74 -14 -124 -31.5t-80 -40t-42 -54.5t-12 -75zM477 1315 l84 309q37 135 154 135q41 0 66.5 -25.5t25.5 -66.5q0 -31 -16.5 -68.5t-51.5 -78.5l-198 -228z" />
<glyph unicode="&#xe2;" horiz-adv-x="1198" d="M78 221q0 154 144.5 246t455.5 135v150q0 70 -6 115.5t-19.5 72.5t-38 37t-61.5 10q-78 0 -122 -37t-44 -102q0 -23 4 -45.5t4 -44.5q0 -59 -41 -98t-100 -39t-97 38.5t-38 100.5q0 66 42 129t120 115q78 51 177 76.5t210 25.5t178 -25.5t102 -76.5q25 -39 36 -99.5 t11 -175.5v-422q0 -92 18.5 -132t59.5 -40q47 0 90 49l47 -67q-129 -137 -299 -137q-100 0 -151 39.5t-68 121.5h-8q-150 -161 -336 -161q-127 0 -198.5 63t-71.5 178zM319 1315l173 346q27 53 60.5 75.5t82.5 22.5q47 0 76.5 -22.5t58.5 -75.5l176 -346l-63 -25l-250 238 l-250 -238zM420 305q0 -133 117 -133q86 0 141 59v275q-74 -14 -124 -31.5t-80 -40t-42 -54.5t-12 -75z" />
<glyph unicode="&#xe3;" horiz-adv-x="1198" d="M78 221q0 154 144.5 246t455.5 135v150q0 70 -6 115.5t-19.5 72.5t-38 37t-61.5 10q-78 0 -122 -37t-44 -102q0 -23 4 -45.5t4 -44.5q0 -59 -41 -98t-100 -39t-97 38.5t-38 100.5q0 66 42 129t120 115q78 51 177 76.5t210 25.5t178 -25.5t102 -76.5q25 -39 36 -99.5 t11 -175.5v-422q0 -92 18.5 -132t59.5 -40q47 0 90 49l47 -67q-129 -137 -299 -137q-100 0 -151 39.5t-68 121.5h-8q-150 -161 -336 -161q-127 0 -198.5 63t-71.5 178zM291 1358q0 145 61.5 221t157.5 76q39 0 69.5 -11.5t58.5 -25.5t56.5 -25.5t63.5 -11.5q102 0 123 78h80 q0 -141 -52.5 -222t-156.5 -81q-43 0 -74 12t-58.5 27.5t-56 28t-67.5 12.5q-53 0 -86 -21.5t-39 -56.5h-80zM420 305q0 -133 117 -133q86 0 141 59v275q-74 -14 -124 -31.5t-80 -40t-42 -54.5t-12 -75z" />
<glyph unicode="&#xe4;" horiz-adv-x="1198" d="M78 221q0 154 144.5 246t455.5 135v150q0 70 -6 115.5t-19.5 72.5t-38 37t-61.5 10q-78 0 -122 -37t-44 -102q0 -23 4 -45.5t4 -44.5q0 -59 -41 -98t-100 -39t-97 38.5t-38 100.5q0 66 42 129t120 115q78 51 177 76.5t210 25.5t178 -25.5t102 -76.5q25 -39 36 -99.5 t11 -175.5v-422q0 -92 18.5 -132t59.5 -40q47 0 90 49l47 -67q-129 -137 -299 -137q-100 0 -151 39.5t-68 121.5h-8q-150 -161 -336 -161q-127 0 -198.5 63t-71.5 178zM244 1450q0 59 41 103t112 44q72 0 115 -44t43 -103q0 -53 -40 -99t-118 -46q-76 0 -114.5 46t-38.5 99z M420 305q0 -133 117 -133q86 0 141 59v275q-74 -14 -124 -31.5t-80 -40t-42 -54.5t-12 -75zM690 1450q0 59 41 103t113 44t114.5 -44t42.5 -103q0 -53 -39.5 -99t-117.5 -46q-76 0 -115 46t-39 99z" />
<glyph unicode="&#xe5;" horiz-adv-x="1198" d="M78 221q0 154 144.5 246t455.5 135v150q0 70 -6 115.5t-19.5 72.5t-38 37t-61.5 10q-78 0 -122 -37t-44 -102q0 -23 4 -45.5t4 -44.5q0 -59 -41 -98t-100 -39t-97 38.5t-38 100.5q0 66 42 129t120 115q78 51 177 76.5t210 25.5t178 -25.5t102 -76.5q25 -39 36 -99.5 t11 -175.5v-422q0 -92 18.5 -132t59.5 -40q47 0 90 49l47 -67q-129 -137 -299 -137q-100 0 -151 39.5t-68 121.5h-8q-150 -161 -336 -161q-127 0 -198.5 63t-71.5 178zM420 305q0 -133 117 -133q86 0 141 59v275q-74 -14 -124 -31.5t-80 -40t-42 -54.5t-12 -75zM459 1503 q0 72 49 121t121 49t121 -49t49 -121t-49 -121t-121 -49q-78 0 -124 49.5t-46 120.5zM561 1503q0 -31 18.5 -49t49.5 -18t49 18.5t18 48.5q0 31 -18.5 49.5t-48.5 18.5q-31 0 -49.5 -18.5t-18.5 -49.5z" />
<glyph unicode="&#xe6;" horiz-adv-x="1839" d="M78 219q0 156 143.5 248t456.5 135v150q0 70 -6 115.5t-19.5 72.5t-38 37t-61.5 10q-78 0 -122 -37t-44 -102q0 -23 4 -45.5t4 -44.5q0 -59 -41 -98t-100 -39t-97 38.5t-38 98.5q0 63 43 128.5t119 117.5q76 49 174 75.5t215 26.5q98 0 160.5 -21.5t107.5 -70.5 q147 92 352 92q233 0 356 -126t132 -374l-17 -12h-745q2 -403 321 -404q100 0 189.5 36t144.5 100l15 16l57 -49l-10 -25q-57 -135 -189.5 -211.5t-308.5 -76.5q-147 0 -264 53t-191 155h-8q-111 -111 -208 -159.5t-208 -48.5q-135 0 -206.5 62t-71.5 177zM420 299 q0 -59 33 -93t90 -34q92 0 188 94q-27 53 -40 114.5t-15 125.5q-133 -27 -194.5 -77t-61.5 -130zM1020 690l418 17q4 16 6 37.5t2 43.5q0 104 -46 158.5t-134 54.5q-106 0 -170 -79.5t-76 -231.5z" />
<glyph unicode="&#xe7;" horiz-adv-x="1169" d="M74 528q0 125 45 231.5t125 183.5t191.5 120t244.5 43q92 0 172 -20.5t137.5 -57.5t90 -87t32.5 -107q0 -63 -37 -100.5t-100 -37.5q-39 0 -63.5 12.5t-40 32t-22.5 43t-9 45.5q-4 37 -12.5 68t-26 53.5t-44 35.5t-67.5 13q-129 0 -200.5 -105.5t-71.5 -301.5 q0 -199 75.5 -300.5t229.5 -101.5q186 0 303 136l14 16l58 -45l-11 -25q-111 -264 -395 -288l-39 -103q111 0 173.5 -57t62.5 -143q0 -90 -73 -148.5t-198 -58.5q-59 0 -113 13t-87 36l39 92q55 -29 110 -29q47 0 77 23.5t30 52.5t-21.5 45.5t-56.5 16.5q-20 0 -47 -4.5 t-47 -12.5l-29 19l100 256q-111 8 -202.5 52t-157.5 115.5t-102.5 168t-36.5 210.5z" />
<glyph unicode="&#xe8;" horiz-adv-x="1236" d="M74 526q0 129 45 235.5t126 183.5t193.5 119t249.5 42q236 0 357.5 -126t130.5 -374l-17 -12h-745q2 -403 321 -404q90 0 182.5 34t151.5 102l14 16l58 -49l-11 -25q-57 -139 -191 -213.5t-302 -74.5q-127 0 -231.5 39.5t-178 111.5t-113.5 172t-40 223zM418 690l418 17 q4 10 6 30.5t2 46.5q0 217 -182 217q-106 0 -168 -79.5t-76 -231.5zM492 1667q0 41 25.5 66.5t66.5 25.5q117 0 153 -135l84 -309l-63 -23l-199 228q-35 41 -51 78.5t-16 68.5z" />
<glyph unicode="&#xe9;" horiz-adv-x="1236" d="M74 526q0 129 45 235.5t126 183.5t193.5 119t249.5 42q236 0 357.5 -126t130.5 -374l-17 -12h-745q2 -403 321 -404q90 0 182.5 34t151.5 102l14 16l58 -49l-11 -25q-57 -139 -191 -213.5t-302 -74.5q-127 0 -231.5 39.5t-178 111.5t-113.5 172t-40 223zM418 690l418 17 q4 10 6 30.5t2 46.5q0 217 -182 217q-106 0 -168 -79.5t-76 -231.5zM541 1315l84 309q37 135 153 135q41 0 66.5 -25.5t25.5 -66.5q0 -31 -16 -68.5t-51 -78.5l-199 -228z" />
<glyph unicode="&#xea;" horiz-adv-x="1236" d="M74 526q0 129 45 235.5t126 183.5t193.5 119t249.5 42q236 0 357.5 -126t130.5 -374l-17 -12h-745q2 -403 321 -404q90 0 182.5 34t151.5 102l14 16l58 -49l-11 -25q-57 -139 -191 -213.5t-302 -74.5q-127 0 -231.5 39.5t-178 111.5t-113.5 172t-40 223zM375 1315 l172 346q27 53 60.5 75.5t82.5 22.5q47 0 77 -22.5t58 -75.5l176 -346l-63 -25l-250 238l-250 -238zM418 690l418 17q4 10 6 30.5t2 46.5q0 217 -182 217q-106 0 -168 -79.5t-76 -231.5z" />
<glyph unicode="&#xeb;" horiz-adv-x="1236" d="M74 526q0 129 45 235.5t126 183.5t193.5 119t249.5 42q236 0 357.5 -126t130.5 -374l-17 -12h-745q2 -403 321 -404q90 0 182.5 34t151.5 102l14 16l58 -49l-11 -25q-57 -139 -191 -213.5t-302 -74.5q-127 0 -231.5 39.5t-178 111.5t-113.5 172t-40 223zM305 1450 q0 59 41 103t113 44t114.5 -44t42.5 -103q0 -53 -39.5 -99t-117.5 -46q-76 0 -115 46t-39 99zM418 690l418 17q4 10 6 30.5t2 46.5q0 217 -182 217q-106 0 -168 -79.5t-76 -231.5zM752 1450q0 59 41 103t112 44q72 0 115 -44t43 -103q0 -53 -40 -99t-118 -46 q-76 0 -114.5 46t-38.5 99z" />
<glyph unicode="&#xec;" horiz-adv-x="737" d="M49 0v72l174 41v790l-174 55v50l449 98h43v-993l164 -41v-72h-656zM205 1667q0 41 25.5 66.5t66.5 25.5q117 0 154 -135l84 -309l-64 -23l-199 228q-35 41 -51 78.5t-16 68.5z" />
<glyph unicode="&#xed;" horiz-adv-x="737" d="M49 0v72l174 41v790l-174 55v50l449 98h43v-993l164 -41v-72h-656zM223 1315l84 309q37 135 154 135q41 0 66.5 -25.5t25.5 -66.5q0 -31 -16.5 -68.5t-51.5 -78.5l-198 -228z" />
<glyph unicode="&#xee;" horiz-adv-x="737" d="M49 0v72l174 41v790l-174 55v50l449 98h43v-993l164 -41v-72h-656zM74 1315l172 346q27 53 60.5 75.5t82.5 22.5q47 0 77 -22.5t58 -75.5l176 -346l-63 -25l-250 238l-250 -238z" />
<glyph unicode="&#xef;" horiz-adv-x="737" d="M2 1450q0 59 41 103t113 44t114.5 -44t42.5 -103q0 -53 -40 -99t-117 -46q-76 0 -115 46t-39 99zM49 0v72l174 41v790l-174 55v50l449 98h43v-993l164 -41v-72h-656zM449 1450q0 59 40.5 103t112.5 44t115 -44t43 -103q0 -53 -40 -99t-118 -46q-76 0 -114.5 46t-38.5 99z " />
<glyph unicode="&#xf0;" horiz-adv-x="1243" d="M74 483q0 104 33.5 192.5t94 153t143.5 101.5t181 37q86 0 151.5 -28t102.5 -79q-31 193 -151 346l-221 -155l-89 127l203 141q-53 49 -117.5 92t-140.5 84l68 102q197 -68 350 -165l217 153l90 -125l-178 -127q164 -143 249 -328.5t85 -404.5q0 -150 -44 -265.5 t-121 -194.5t-178.5 -119.5t-213.5 -40.5q-111 0 -205 36.5t-162.5 103t-107.5 159t-39 204.5zM410 449q0 -160 51 -253.5t141 -93.5q96 0 151.5 102.5t55.5 282.5q0 57 -6 112.5t-19 102.5q-27 53 -70.5 82t-97.5 29q-96 0 -151 -98.5t-55 -265.5z" />
<glyph unicode="&#xf1;" horiz-adv-x="1400" d="M53 958v48l418 100h45v-152q70 70 171 111t206 41q100 0 174 -43t113 -121q8 -20 14 -42.5t10 -54.5t5 -79t1 -115v-538l154 -41v-72h-614v72l143 41v458q0 59 -1 100.5t-3 69t-6 45t-11 31.5q-23 51 -68.5 78t-111.5 27q-100 0 -166 -78v-731l144 -41v-72h-615v72 l154 41v788zM375 1358q0 145 61.5 221t157.5 76q39 0 69.5 -11.5t58.5 -25.5t56.5 -25.5t63.5 -11.5q102 0 123 78h79q0 -141 -52 -222t-156 -81q-43 0 -74 12t-58.5 27.5t-56.5 28t-67 12.5q-53 0 -86 -21.5t-39 -56.5h-80z" />
<glyph unicode="&#xf2;" horiz-adv-x="1314" d="M74 543q0 117 39 219t112.5 179t182 121t249.5 44t250 -44t182.5 -121t112.5 -179.5t39 -218.5q0 -117 -39 -219.5t-112.5 -179t-182 -120.5t-250.5 -44q-141 0 -249.5 44t-182 120.5t-112.5 179t-39 219.5zM418 543q0 -72 9 -153t34.5 -148.5t73 -112.5t122.5 -45 q74 0 121 45t74 112.5t36 148.5t9 153q0 70 -9 150.5t-35 148t-73 112.5t-123 45t-123 -45t-72.5 -112.5t-34.5 -148t-9 -150.5zM496 1667q0 41 25.5 66.5t66.5 25.5q117 0 153 -135l84 -309l-63 -23l-199 228q-35 41 -51 78.5t-16 68.5z" />
<glyph unicode="&#xf3;" horiz-adv-x="1314" d="M74 543q0 117 39 219t112.5 179t182 121t249.5 44t250 -44t182.5 -121t112.5 -179.5t39 -218.5q0 -117 -39 -219.5t-112.5 -179t-182 -120.5t-250.5 -44q-141 0 -249.5 44t-182 120.5t-112.5 179t-39 219.5zM418 543q0 -72 9 -153t34.5 -148.5t73 -112.5t122.5 -45 q74 0 121 45t74 112.5t36 148.5t9 153q0 70 -9 150.5t-35 148t-73 112.5t-123 45t-123 -45t-72.5 -112.5t-34.5 -148t-9 -150.5zM551 1315l84 309q37 135 153 135q41 0 67 -25.5t26 -66.5q0 -31 -16.5 -68.5t-51.5 -78.5l-199 -228z" />
<glyph unicode="&#xf4;" horiz-adv-x="1314" d="M74 543q0 117 39 219t112.5 179t182 121t249.5 44t250 -44t182.5 -121t112.5 -179.5t39 -218.5q0 -117 -39 -219.5t-112.5 -179t-182 -120.5t-250.5 -44q-141 0 -249.5 44t-182 120.5t-112.5 179t-39 219.5zM356 1315l172 346q27 53 61 75.5t83 22.5q47 0 76.5 -22.5 t58.5 -75.5l176 -346l-63 -25l-250 238l-250 -238zM418 543q0 -72 9 -153t34.5 -148.5t73 -112.5t122.5 -45q74 0 121 45t74 112.5t36 148.5t9 153q0 70 -9 150.5t-35 148t-73 112.5t-123 45t-123 -45t-72.5 -112.5t-34.5 -148t-9 -150.5z" />
<glyph unicode="&#xf5;" horiz-adv-x="1314" d="M74 543q0 117 39 219t112.5 179t182 121t249.5 44t250 -44t182.5 -121t112.5 -179.5t39 -218.5q0 -117 -39 -219.5t-112.5 -179t-182 -120.5t-250.5 -44q-141 0 -249.5 44t-182 120.5t-112.5 179t-39 219.5zM328 1358q0 145 61.5 221t157.5 76q39 0 69.5 -11.5t58 -25.5 t56.5 -25.5t64 -11.5q102 0 123 78h79q0 -141 -52 -222t-157 -81q-43 0 -73.5 12t-58 27.5t-56.5 28t-68 12.5q-53 0 -85.5 -21.5t-38.5 -56.5h-80zM418 543q0 -72 9 -153t34.5 -148.5t73 -112.5t122.5 -45q74 0 121 45t74 112.5t36 148.5t9 153q0 70 -9 150.5t-35 148 t-73 112.5t-123 45t-123 -45t-72.5 -112.5t-34.5 -148t-9 -150.5z" />
<glyph unicode="&#xf6;" horiz-adv-x="1314" d="M74 543q0 117 39 219t112.5 179t182 121t249.5 44t250 -44t182.5 -121t112.5 -179.5t39 -218.5q0 -117 -39 -219.5t-112.5 -179t-182 -120.5t-250.5 -44q-141 0 -249.5 44t-182 120.5t-112.5 179t-39 219.5zM281 1450q0 59 40.5 103t112.5 44t115 -44t43 -103 q0 -53 -40 -99t-118 -46q-76 0 -114.5 46t-38.5 99zM418 543q0 -72 9 -153t34.5 -148.5t73 -112.5t122.5 -45q74 0 121 45t74 112.5t36 148.5t9 153q0 70 -9 150.5t-35 148t-73 112.5t-123 45t-123 -45t-72.5 -112.5t-34.5 -148t-9 -150.5zM727 1450q0 59 41 103t113 44 t114.5 -44t42.5 -103q0 -53 -40 -99t-117 -46q-76 0 -115 46t-39 99z" />
<glyph unicode="&#xf7;" horiz-adv-x="1028" d="M94 629v133h840v-133h-840zM334 336q0 68 45 119t129 51q86 0 134 -51.5t48 -118.5q0 -63 -46 -115.5t-136 -52.5q-86 0 -130 52.5t-44 115.5zM334 1065q0 68 45 119t129 51q86 0 134 -51t48 -119q0 -63 -46 -115.5t-136 -52.5q-86 0 -130 52.5t-44 115.5z" />
<glyph unicode="&#xf8;" horiz-adv-x="1335" d="M63 0l156 162q-66 76 -100.5 173t-34.5 208q0 117 39 219t112.5 179t182 121t250.5 44q113 0 204 -28.5t162 -80.5l86 88h156l-160 -163q66 -76 100.5 -172.5t34.5 -206.5q0 -117 -38.5 -219.5t-112.5 -179t-182.5 -120.5t-249.5 -44q-113 0 -204 27.5t-163 78.5l-84 -86 h-154zM428 543q0 -37 2 -77t8 -81l430 442q-27 74 -73.5 123t-126.5 49q-76 0 -123 -45t-73 -112.5t-35 -148.5t-9 -150zM467 256q25 -74 73 -123t128 -49q74 0 121 45t73.5 112.5t35.5 148.5t9 153q0 35 -3 73.5t-7 79.5z" />
<glyph unicode="&#xf9;" horiz-adv-x="1359" d="M37 1014v71h471v-561q0 -109 4 -162t16 -83q41 -113 172 -113q86 0 144 59v748l-144 41v71h461v-901l156 -57v-47l-418 -100h-45v129l-6 6q-72 -61 -165 -98t-181 -37q-98 0 -170 40.5t-111 122.5q-10 18 -15 40t-9 54.5t-5.5 78.5t-1.5 118v539zM453 1667 q0 41 25.5 66.5t66.5 25.5q117 0 153 -135l84 -309l-63 -23l-199 228q-35 41 -51 78.5t-16 68.5z" />
<glyph unicode="&#xfa;" horiz-adv-x="1359" d="M37 1014v71h471v-561q0 -109 4 -162t16 -83q41 -113 172 -113q86 0 144 59v748l-144 41v71h461v-901l156 -57v-47l-418 -100h-45v129l-6 6q-72 -61 -165 -98t-181 -37q-98 0 -170 40.5t-111 122.5q-10 18 -15 40t-9 54.5t-5.5 78.5t-1.5 118v539zM537 1315l84 309 q37 135 153 135q41 0 66.5 -25.5t25.5 -66.5q0 -31 -16 -68.5t-51 -78.5l-199 -228z" />
<glyph unicode="&#xfb;" horiz-adv-x="1359" d="M37 1014v71h471v-561q0 -109 4 -162t16 -83q41 -113 172 -113q86 0 144 59v748l-144 41v71h461v-901l156 -57v-47l-418 -100h-45v129l-6 6q-72 -61 -165 -98t-181 -37q-98 0 -170 40.5t-111 122.5q-10 18 -15 40t-9 54.5t-5.5 78.5t-1.5 118v539zM391 1315l172 346 q27 53 61 75.5t83 22.5q47 0 76.5 -22.5t58.5 -75.5l176 -346l-64 -25l-249 238l-250 -238z" />
<glyph unicode="&#xfc;" horiz-adv-x="1359" d="M37 1014v71h471v-561q0 -109 4 -162t16 -83q41 -113 172 -113q86 0 144 59v748l-144 41v71h461v-901l156 -57v-47l-418 -100h-45v129l-6 6q-72 -61 -165 -98t-181 -37q-98 0 -170 40.5t-111 122.5q-10 18 -15 40t-9 54.5t-5.5 78.5t-1.5 118v539zM307 1450q0 59 41 103 t113 44t114.5 -44t42.5 -103q0 -53 -39.5 -99t-117.5 -46q-76 0 -115 46t-39 99zM754 1450q0 59 41 103t112 44q72 0 115 -44t43 -103q0 -53 -40 -99t-118 -46q-76 0 -114.5 46t-38.5 99z" />
<glyph unicode="&#xfd;" horiz-adv-x="1290" d="M-16 1014v71h667v-71q-76 -6 -110.5 -19.5t-34.5 -46.5q0 -20 8 -37l238 -561h10l207 502q10 25 14 41t4 31q0 82 -164 90v71h494v-71q-57 -10 -93 -22.5t-59.5 -31t-40 -45t-32.5 -65.5l-474 -1139q-55 -133 -133 -190q-78 -53 -202 -53q-102 0 -172 44t-70 132 q0 59 39 94t92 35q47 0 82 -26t51 -79q16 -49 28.5 -63.5t41.5 -14.5q35 0 70.5 36t58.5 100l82 217l-439 989q-16 39 -51 56.5t-112 25.5zM618 1315l84 309q37 135 154 135q41 0 66.5 -25.5t25.5 -66.5q0 -31 -16.5 -68.5t-50.5 -78.5l-199 -228z" />
<glyph unicode="&#xfe;" horiz-adv-x="1349" d="M-16 -463l178 53v1907l-172 55v47l444 101h45v-739q150 145 344 145q100 0 183.5 -38t141.5 -107.5t91 -167t33 -215.5q0 -135 -42 -246t-121 -190t-189.5 -120.5t-245.5 -41.5q-53 0 -100.5 7t-94.5 23v-420l275 -53v-49h-770v49zM479 315q0 -96 57.5 -160.5 t141.5 -64.5q55 0 101 32t79 90t50.5 139t17.5 181q0 197 -65.5 305.5t-182.5 108.5q-121 0 -199 -119v-512z" />
<glyph unicode="&#xff;" horiz-adv-x="1290" d="M-16 1014v71h667v-71q-76 -6 -110.5 -19.5t-34.5 -46.5q0 -20 8 -37l238 -561h10l207 502q10 25 14 41t4 31q0 82 -164 90v71h494v-71q-57 -10 -93 -22.5t-59.5 -31t-40 -45t-32.5 -65.5l-474 -1139q-55 -133 -133 -190q-78 -53 -202 -53q-102 0 -172 44t-70 132 q0 59 39 94t92 35q47 0 82 -26t51 -79q16 -49 28.5 -63.5t41.5 -14.5q35 0 70.5 36t58.5 100l82 217l-439 989q-16 39 -51 56.5t-112 25.5zM379 1450q0 59 41 103t112 44q72 0 115 -44t43 -103q0 -53 -40 -99t-118 -46q-76 0 -114.5 46t-38.5 99zM825 1450q0 59 41 103 t113 44t115 -44t43 -103q0 -53 -40 -99t-118 -46q-76 0 -115 46t-39 99z" />
<glyph unicode="&#x152;" horiz-adv-x="2400" d="M92 788q0 166 52.5 313.5t153.5 258t249.5 174t341.5 63.5q53 0 105.5 -5t99.5 -15h1149l38 -451h-86q-29 80 -66.5 167t-90.5 167h-522v-571h258q35 57 55 115.5t33 115.5h86v-573h-86q-12 57 -34 115.5t-54 115.5h-258v-661h509q66 92 108 181t79 181h106l-86 -479 h-1142q-47 -10 -97.5 -15t-103.5 -5q-193 0 -341.5 63t-249.5 174t-153.5 258.5t-52.5 312.5zM496 788q0 -106 15 -227t58 -224.5t120 -171t200 -67.5q94 0 161.5 31t112.5 82v1147q-45 53 -111.5 85t-162.5 32q-123 0 -200 -68t-120 -170t-58 -222t-15 -227z" />
<glyph unicode="&#x153;" horiz-adv-x="2064" d="M74 543q0 117 39 219t112.5 179t182 121t249.5 44q135 0 241 -42t179 -114q82 74 192.5 115t246.5 41q236 0 357.5 -126t129.5 -374l-16 -12h-746q2 -403 322 -404q90 0 182 34t151 102l15 16l57 -49l-10 -25q-57 -139 -191.5 -213.5t-302.5 -74.5q-125 0 -226 36.5 t-173 104.5q-74 -66 -176.5 -103.5t-231.5 -37.5q-141 0 -249.5 44t-182 120.5t-112.5 179t-39 219.5zM418 543q0 -72 9 -153t34.5 -148.5t73 -112.5t122.5 -45q74 0 121 45t74 112.5t36 148.5t9 153q0 70 -9 150.5t-35 148t-73 112.5t-123 45t-123 -45t-72.5 -112.5 t-34.5 -148t-9 -150.5zM1245 690l418 17q4 10 6 30.5t2 46.5q0 217 -182 217q-106 0 -167.5 -79.5t-76.5 -231.5z" />
<glyph unicode="&#x178;" horiz-adv-x="1525" d="M-37 1501v76h846v-76q-61 -4 -102 -13t-63.5 -21.5t-32 -29t-9.5 -34.5q0 -27 19 -60l262 -514h8l235 449q39 76 39 123q0 49 -50 72.5t-177 27.5v76h618v-76q-63 -6 -103 -14t-69.5 -30.5t-57.5 -65.5t-66 -117l-318 -590v-565l172 -43v-76h-698v76l174 43v567l-391 690 q-23 39 -41.5 61.5t-44 36t-61.5 18.5t-89 9zM535 1780q0 55 37.5 98t107.5 43t109.5 -43t39.5 -98q0 -49 -37.5 -93.5t-111.5 -44.5q-72 0 -108.5 44.5t-36.5 93.5zM958 1780q0 55 38 98t108 43t109.5 -43t39.5 -98q0 -49 -36.5 -93.5t-112.5 -44.5q-72 0 -109 44.5 t-37 93.5z" />
<glyph unicode="&#x2c6;" horiz-adv-x="667" d="M20 1315l173 346q27 53 60.5 75.5t82.5 22.5q47 0 76.5 -22.5t58.5 -75.5l176 -346l-63 -25l-250 238l-250 -238z" />
<glyph unicode="&#x2dc;" horiz-adv-x="710" d="M20 1358q0 145 61.5 221t158.5 76q39 0 69.5 -11.5t58 -25.5t56.5 -25.5t63 -11.5q102 0 123 78h80q0 -141 -52 -222t-157 -81q-43 0 -73.5 12t-58 27.5t-56.5 28t-68 12.5q-53 0 -86 -21.5t-39 -56.5h-80z" />
<glyph unicode="&#x2000;" horiz-adv-x="993" />
<glyph unicode="&#x2001;" horiz-adv-x="1987" />
<glyph unicode="&#x2002;" horiz-adv-x="993" />
<glyph unicode="&#x2003;" horiz-adv-x="1987" />
<glyph unicode="&#x2004;" horiz-adv-x="662" />
<glyph unicode="&#x2005;" horiz-adv-x="496" />
<glyph unicode="&#x2006;" horiz-adv-x="331" />
<glyph unicode="&#x2007;" horiz-adv-x="331" />
<glyph unicode="&#x2008;" horiz-adv-x="248" />
<glyph unicode="&#x2009;" horiz-adv-x="397" />
<glyph unicode="&#x200a;" horiz-adv-x="110" />
<glyph unicode="&#x2010;" horiz-adv-x="911" d="M129 408v217h653v-217h-653z" />
<glyph unicode="&#x2011;" horiz-adv-x="911" d="M129 408v217h653v-217h-653z" />
<glyph unicode="&#x2012;" horiz-adv-x="911" d="M129 408v217h653v-217h-653z" />
<glyph unicode="&#x2013;" horiz-adv-x="1517" d="M145 436v158h1227v-158h-1227z" />
<glyph unicode="&#x2014;" horiz-adv-x="2174" d="M145 436v158h1885v-158h-1885z" />
<glyph unicode="&#x2018;" horiz-adv-x="532" d="M88 1278q0 133 70.5 243.5t199.5 178.5l50 -68q-68 -49 -112 -107.5t-44 -99.5q0 -37 29.5 -56t66.5 -38.5t66.5 -49.5t29.5 -85q0 -70 -49 -115t-125 -45q-86 0 -134 64.5t-48 177.5z" />
<glyph unicode="&#x2019;" horiz-adv-x="528" d="M92 1540q0 70 49 115t125 45q86 0 134.5 -64.5t48.5 -177.5q0 -133 -71 -243.5t-200 -178.5l-49 68q68 49 112 107.5t44 99.5q0 37 -30 56t-66.5 38.5t-66.5 49.5t-30 85z" />
<glyph unicode="&#x201a;" horiz-adv-x="567" d="M104 178q0 70 49.5 115t125.5 45q86 0 134 -64.5t48 -177.5q0 -133 -71 -243.5t-200 -178.5l-49 68q68 49 112 107.5t44 99.5q0 37 -29.5 56.5t-66.5 38.5t-67 49t-30 85z" />
<glyph unicode="&#x201c;" horiz-adv-x="987" d="M88 1278q0 133 70.5 243.5t199.5 178.5l50 -68q-68 -49 -112 -107.5t-44 -99.5q0 -37 29.5 -56t66.5 -38.5t66.5 -49.5t29.5 -85q0 -70 -49 -115t-125 -45q-86 0 -134 64.5t-48 177.5zM543 1278q0 133 70.5 243.5t199.5 178.5l49 -68q-68 -49 -111.5 -107.5t-43.5 -99.5 q0 -37 29.5 -56t66.5 -38.5t66.5 -49.5t29.5 -85q0 -70 -49 -115t-125 -45q-86 0 -134 64.5t-48 177.5z" />
<glyph unicode="&#x201d;" horiz-adv-x="983" d="M92 1540q0 70 49 115t125 45q86 0 134.5 -64.5t48.5 -177.5q0 -133 -71 -243.5t-200 -178.5l-49 68q68 49 112 107.5t44 99.5q0 37 -30 56t-66.5 38.5t-66.5 49.5t-30 85zM547 1540q0 70 49 115t125 45q86 0 134 -64.5t48 -177.5q0 -133 -70.5 -243.5t-199.5 -178.5 l-49 68q68 49 111.5 107.5t43.5 99.5q0 37 -29.5 56t-66.5 38.5t-66.5 49.5t-29.5 85z" />
<glyph unicode="&#x201e;" horiz-adv-x="1021" d="M104 178q0 70 49.5 115t125.5 45q86 0 134 -64.5t48 -177.5q0 -133 -71 -243.5t-200 -178.5l-49 68q68 49 112 107.5t44 99.5q0 37 -29.5 56.5t-66.5 38.5t-67 49t-30 85zM559 178q0 70 49 115t125 45q86 0 134 -64.5t48 -177.5q0 -133 -70.5 -243.5t-199.5 -178.5 l-49 68q68 49 112 107.5t44 99.5q0 37 -30 56.5t-67 38.5t-66.5 49t-29.5 85z" />
<glyph unicode="&#x2022;" horiz-adv-x="884" d="M147 766q0 57 24 109.5t64.5 90.5t94 60.5t114.5 22.5t114.5 -22.5t93.5 -60.5t63.5 -90.5t23.5 -109.5q0 -59 -23.5 -110.5t-63.5 -89.5t-93 -60.5t-115 -22.5q-61 0 -114.5 22.5t-94 60.5t-64.5 89.5t-24 110.5z" />
<glyph unicode="&#x2026;" horiz-adv-x="1802" d="M102 156q0 78 50.5 129t130.5 51q82 0 135 -51.5t53 -128.5q0 -78 -52 -127t-134 -49t-132.5 49t-50.5 127zM717 156q0 78 50 129t130 51q82 0 135 -51.5t53 -128.5q0 -78 -52 -127t-134 -49t-132 49t-50 127zM1331 156q0 78 50.5 129t129.5 51q82 0 135.5 -51.5 t53.5 -128.5q0 -78 -52.5 -127t-134.5 -49t-132 49t-50 127z" />
<glyph unicode="&#x202f;" horiz-adv-x="397" />
<glyph unicode="&#x2039;" horiz-adv-x="606" d="M100 483v39l301 371l62 -27l-111 -362l115 -365l-61 -30z" />
<glyph unicode="&#x203a;" horiz-adv-x="606" d="M139 139l115 365l-111 362l62 27l301 -371v-39l-305 -374z" />
<glyph unicode="&#x205f;" horiz-adv-x="496" />
<glyph unicode="&#x20ac;" horiz-adv-x="1316" d="M70 594l20 131h139v55v30.5t2 31.5h-120l20 131h113q20 139 69 253.5t123 197.5t168 128t205 45q80 0 152.5 -23.5t126 -64.5t85 -96t31.5 -117q0 -59 -29.5 -92t-80.5 -33q-35 0 -57.5 13.5t-38 33t-24.5 44t-16 49.5q-18 78 -48.5 121t-96.5 43q-45 0 -80 -24 t-60.5 -80t-42 -153.5t-22.5 -244.5h406l-21 -131h-389v-117h369l-21 -131h-346q6 -141 19.5 -235.5t36 -151.5t54.5 -82t75 -25q39 0 64.5 16.5t44 43t29.5 59.5t19 66q4 18 12.5 41.5t23.5 45t41 37t67 15.5q113 0 112 -127q0 -68 -31.5 -125t-87 -100t-129 -67.5 t-155.5 -24.5q-111 0 -205 44t-166 124.5t-120 194.5t-68 251h-172z" />
<glyph unicode="&#x2122;" horiz-adv-x="1849" d="M135 1364l31 213h573l31 -213h-51l-76 147h-100v-499l90 -17v-49h-359v49l91 17v499h-103l-76 -147h-51zM795 946v49l73 17v497l-73 17v51h295l157 -485h8l185 485h274v-51l-74 -17v-497l74 -17v-49h-315v49l74 17v420l-195 -494h-145l-183 528h-8v-454l72 -17v-49h-219z " />
<glyph unicode="&#x25fc;" horiz-adv-x="1085" d="M0 0v1085h1085v-1085h-1085z" />
</font>
</defs>
</svg>
